<mxfile host="Electron" agent="Mozilla/5.0 (Windows NT 10.0; Win64; x64) AppleWebKit/537.36 (KHTML, like Gecko) draw.io/24.7.8 Chrome/128.0.6613.36 Electron/32.0.1 Safari/537.36" version="24.7.8" pages="6">
  <diagram name="Diagrama de Casos de Uso" id="l6K2_Cvj6dLKRLJivit4">
    <mxGraphModel dx="825" dy="527" grid="1" gridSize="10" guides="1" tooltips="1" connect="1" arrows="1" fold="1" page="1" pageScale="1" pageWidth="850" pageHeight="1100" math="0" shadow="0">
      <root>
        <mxCell id="0" />
        <mxCell id="1" parent="0" />
        <mxCell id="uFkqdge1s5fHSP3qxdOP-8" style="edgeStyle=orthogonalEdgeStyle;rounded=0;orthogonalLoop=1;jettySize=auto;html=1;" edge="1" parent="1" source="uFkqdge1s5fHSP3qxdOP-1" target="uFkqdge1s5fHSP3qxdOP-3">
          <mxGeometry relative="1" as="geometry" />
        </mxCell>
        <mxCell id="uFkqdge1s5fHSP3qxdOP-9" style="edgeStyle=orthogonalEdgeStyle;rounded=0;orthogonalLoop=1;jettySize=auto;html=1;entryX=0;entryY=0.5;entryDx=0;entryDy=0;" edge="1" parent="1" source="uFkqdge1s5fHSP3qxdOP-1" target="uFkqdge1s5fHSP3qxdOP-4">
          <mxGeometry relative="1" as="geometry" />
        </mxCell>
        <mxCell id="uFkqdge1s5fHSP3qxdOP-10" style="edgeStyle=orthogonalEdgeStyle;rounded=0;orthogonalLoop=1;jettySize=auto;html=1;entryX=0;entryY=0.5;entryDx=0;entryDy=0;" edge="1" parent="1" source="uFkqdge1s5fHSP3qxdOP-1" target="uFkqdge1s5fHSP3qxdOP-5">
          <mxGeometry relative="1" as="geometry" />
        </mxCell>
        <mxCell id="uFkqdge1s5fHSP3qxdOP-11" style="edgeStyle=orthogonalEdgeStyle;rounded=0;orthogonalLoop=1;jettySize=auto;html=1;entryX=0;entryY=0.5;entryDx=0;entryDy=0;" edge="1" parent="1" source="uFkqdge1s5fHSP3qxdOP-1" target="uFkqdge1s5fHSP3qxdOP-2">
          <mxGeometry relative="1" as="geometry" />
        </mxCell>
        <mxCell id="uFkqdge1s5fHSP3qxdOP-1" value="Actor" style="shape=umlActor;verticalLabelPosition=bottom;verticalAlign=top;html=1;outlineConnect=0;" vertex="1" parent="1">
          <mxGeometry x="210" y="320" width="30" height="60" as="geometry" />
        </mxCell>
        <mxCell id="uFkqdge1s5fHSP3qxdOP-2" value="Crear Empleado" style="ellipse;whiteSpace=wrap;html=1;" vertex="1" parent="1">
          <mxGeometry x="450" y="160" width="120" height="80" as="geometry" />
        </mxCell>
        <mxCell id="uFkqdge1s5fHSP3qxdOP-3" value="Consultar Empleado" style="ellipse;whiteSpace=wrap;html=1;" vertex="1" parent="1">
          <mxGeometry x="450" y="260" width="120" height="80" as="geometry" />
        </mxCell>
        <mxCell id="uFkqdge1s5fHSP3qxdOP-4" value="Actualizar Empelado" style="ellipse;whiteSpace=wrap;html=1;" vertex="1" parent="1">
          <mxGeometry x="450" y="360" width="120" height="80" as="geometry" />
        </mxCell>
        <mxCell id="uFkqdge1s5fHSP3qxdOP-5" value="Eliminar Empleado" style="ellipse;whiteSpace=wrap;html=1;" vertex="1" parent="1">
          <mxGeometry x="450" y="460" width="120" height="80" as="geometry" />
        </mxCell>
      </root>
    </mxGraphModel>
  </diagram>
  <diagram id="XVpWZzMbLb9lmTAaR5bi" name="Diagrama de Secuencia Get Query">
    <mxGraphModel dx="1238" dy="791" grid="1" gridSize="10" guides="1" tooltips="1" connect="1" arrows="1" fold="1" page="1" pageScale="1" pageWidth="850" pageHeight="1100" math="0" shadow="0">
      <root>
        <mxCell id="0" />
        <mxCell id="1" parent="0" />
        <mxCell id="jUwvyouOoQi546NdjQ4p-11" style="edgeStyle=elbowEdgeStyle;rounded=0;orthogonalLoop=1;jettySize=auto;html=1;elbow=vertical;curved=0;" parent="1" edge="1">
          <mxGeometry relative="1" as="geometry">
            <mxPoint x="299.5" y="230" as="sourcePoint" />
            <mxPoint x="459.5" y="230" as="targetPoint" />
          </mxGeometry>
        </mxCell>
        <mxCell id="c0EYbXlExEsQ9aOfK5cL-1" value="Get(Id)" style="edgeLabel;html=1;align=center;verticalAlign=middle;resizable=0;points=[];" parent="jUwvyouOoQi546NdjQ4p-11" vertex="1" connectable="0">
          <mxGeometry x="0.5688" y="-3" relative="1" as="geometry">
            <mxPoint y="-3" as="offset" />
          </mxGeometry>
        </mxCell>
        <mxCell id="jUwvyouOoQi546NdjQ4p-1" value="EmpleadoController" style="shape=umlLifeline;perimeter=lifelinePerimeter;whiteSpace=wrap;html=1;container=1;dropTarget=0;collapsible=0;recursiveResize=0;outlineConnect=0;portConstraint=eastwest;newEdgeStyle={&quot;edgeStyle&quot;:&quot;elbowEdgeStyle&quot;,&quot;elbow&quot;:&quot;vertical&quot;,&quot;curved&quot;:0,&quot;rounded&quot;:0};" parent="1" vertex="1">
          <mxGeometry x="240" y="120" width="120" height="480" as="geometry" />
        </mxCell>
        <mxCell id="c0EYbXlExEsQ9aOfK5cL-2" style="edgeStyle=elbowEdgeStyle;rounded=0;orthogonalLoop=1;jettySize=auto;html=1;elbow=vertical;curved=0;" parent="1" target="jUwvyouOoQi546NdjQ4p-4" edge="1">
          <mxGeometry relative="1" as="geometry">
            <mxPoint x="459.5" y="250" as="sourcePoint" />
            <mxPoint x="609.5" y="250" as="targetPoint" />
            <Array as="points">
              <mxPoint x="550" y="250" />
            </Array>
          </mxGeometry>
        </mxCell>
        <mxCell id="c0EYbXlExEsQ9aOfK5cL-3" value="Dispatch(GetEmpleadoQuery,cancellation)" style="edgeLabel;html=1;align=center;verticalAlign=middle;resizable=0;points=[];" parent="c0EYbXlExEsQ9aOfK5cL-2" vertex="1" connectable="0">
          <mxGeometry x="-0.0467" y="2" relative="1" as="geometry">
            <mxPoint x="22" y="2" as="offset" />
          </mxGeometry>
        </mxCell>
        <mxCell id="c0EYbXlExEsQ9aOfK5cL-12" style="edgeStyle=elbowEdgeStyle;rounded=0;orthogonalLoop=1;jettySize=auto;html=1;elbow=horizontal;curved=0;dashed=1;" parent="1" source="jUwvyouOoQi546NdjQ4p-2" target="jUwvyouOoQi546NdjQ4p-1" edge="1">
          <mxGeometry relative="1" as="geometry">
            <Array as="points">
              <mxPoint x="400" y="540" />
            </Array>
          </mxGeometry>
        </mxCell>
        <mxCell id="c0EYbXlExEsQ9aOfK5cL-13" value="&lt;span style=&quot;color: rgba(0, 0, 0, 0); font-family: monospace; font-size: 0px; text-align: start; background-color: rgb(251, 251, 251);&quot;&gt;%3CmxGraphModel%3E%3Croot%3E%3CmxCell%20id%3D%220%22%2F%3E%3CmxCell%20id%3D%221%22%20parent%3D%220%22%2F%3E%3CmxCell%20id%3D%222%22%20style%3D%22edgeStyle%3DelbowEdgeStyle%3Brounded%3D0%3BorthogonalLoop%3D1%3BjettySize%3Dauto%3Bhtml%3D1%3Belbow%3Dhorizontal%3Bcurved%3D0%3Bdashed%3D1%3B%22%20edge%3D%221%22%20parent%3D%221%22%3E%3CmxGeometry%20relative%3D%221%22%20as%3D%22geometry%22%3E%3CmxPoint%20x%3D%22730%22%20y%3D%22350%22%20as%3D%22sourcePoint%22%2F%3E%3CmxPoint%20x%3D%22460%22%20y%3D%22350%22%20as%3D%22targetPoint%22%2F%3E%3CArray%20as%3D%22points%22%3E%3CmxPoint%20x%3D%22580%22%20y%3D%22350%22%2F%3E%3C%2FArray%3E%3C%2FmxGeometry%3E%3C%2FmxCell%3E%3CmxCell%20id%3D%223%22%20value%3D%22InternalResponse%26amp%3Blt%3BEmpleado%26amp%3Bgt%3B%22%20style%3D%22edgeLabel%3Bhtml%3D1%3Balign%3Dcenter%3BverticalAlign%3Dmiddle%3Bresizable%3D0%3Bpoints%3D%5B%5D%3B%22%20vertex%3D%221%22%20connectable%3D%220%22%20parent%3D%222%22%3E%3CmxGeometry%20x%3D%22-0.0556%22%20y%3D%22-4%22%20relative%3D%221%22%20as%3D%22geometry%22%3E%3CmxPoint%20as%3D%22offset%22%2F%3E%3C%2FmxGeometry%3E%3C%2FmxCell%3E%3C%2Froot%3E%3C%2FmxGraphModel%3E&lt;/span&gt;" style="edgeLabel;html=1;align=center;verticalAlign=middle;resizable=0;points=[];" parent="c0EYbXlExEsQ9aOfK5cL-12" vertex="1" connectable="0">
          <mxGeometry x="0.1063" y="-1" relative="1" as="geometry">
            <mxPoint x="1" as="offset" />
          </mxGeometry>
        </mxCell>
        <mxCell id="c0EYbXlExEsQ9aOfK5cL-14" value="&lt;span style=&quot;color: rgba(0, 0, 0, 0); font-family: monospace; font-size: 0px; text-align: start; background-color: rgb(251, 251, 251);&quot;&gt;%3CmxGraphModel%3E%3Croot%3E%3CmxCell%20id%3D%220%22%2F%3E%3CmxCell%20id%3D%221%22%20parent%3D%220%22%2F%3E%3CmxCell%20id%3D%222%22%20value%3D%22InternalResponse%26amp%3Blt%3BEmpleado%26amp%3Bgt%3B%22%20style%3D%22edgeLabel%3Bhtml%3D1%3Balign%3Dcenter%3BverticalAlign%3Dmiddle%3Bresizable%3D0%3Bpoints%3D%5B%5D%3B%22%20vertex%3D%221%22%20connectable%3D%220%22%20parent%3D%221%22%3E%3CmxGeometry%20x%3D%22602.5%22%20y%3D%22346%22%20as%3D%22geometry%22%2F%3E%3C%2FmxCell%3E%3C%2Froot%3E%3C%2FmxGraphModel%3E&lt;/span&gt;" style="edgeLabel;html=1;align=center;verticalAlign=middle;resizable=0;points=[];" parent="c0EYbXlExEsQ9aOfK5cL-12" vertex="1" connectable="0">
          <mxGeometry x="0.2813" y="2" relative="1" as="geometry">
            <mxPoint x="1" as="offset" />
          </mxGeometry>
        </mxCell>
        <mxCell id="c0EYbXlExEsQ9aOfK5cL-15" value="&lt;span style=&quot;color: rgba(0, 0, 0, 0); font-family: monospace; font-size: 0px; text-align: start; background-color: rgb(251, 251, 251);&quot;&gt;%3CmxGraphModel%3E%3Croot%3E%3CmxCell%20id%3D%220%22%2F%3E%3CmxCell%20id%3D%221%22%20parent%3D%220%22%2F%3E%3CmxCell%20id%3D%222%22%20value%3D%22InternalResponse%26amp%3Blt%3BEmpleado%26amp%3Bgt%3B%22%20style%3D%22edgeLabel%3Bhtml%3D1%3Balign%3Dcenter%3BverticalAlign%3Dmiddle%3Bresizable%3D0%3Bpoints%3D%5B%5D%3B%22%20vertex%3D%221%22%20connectable%3D%220%22%20parent%3D%221%22%3E%3CmxGeometry%20x%3D%22602.5%22%20y%3D%22346%22%20as%3D%22geometry%22%2F%3E%3C%2FmxCell%3E%3C%2Froot%3E%3C%2FmxGraphModel%3E&lt;/span&gt;" style="edgeLabel;html=1;align=center;verticalAlign=middle;resizable=0;points=[];" parent="c0EYbXlExEsQ9aOfK5cL-12" vertex="1" connectable="0">
          <mxGeometry x="0.1313" y="5" relative="1" as="geometry">
            <mxPoint x="1" as="offset" />
          </mxGeometry>
        </mxCell>
        <mxCell id="c0EYbXlExEsQ9aOfK5cL-16" value="InternalResponse&amp;lt;Empleado&amp;gt;" style="edgeLabel;html=1;align=center;verticalAlign=middle;resizable=0;points=[];" parent="c0EYbXlExEsQ9aOfK5cL-12" vertex="1" connectable="0">
          <mxGeometry x="-0.1062" y="-3" relative="1" as="geometry">
            <mxPoint x="1" as="offset" />
          </mxGeometry>
        </mxCell>
        <mxCell id="jUwvyouOoQi546NdjQ4p-2" value="EmpleadoService" style="shape=umlLifeline;perimeter=lifelinePerimeter;whiteSpace=wrap;html=1;container=1;dropTarget=0;collapsible=0;recursiveResize=0;outlineConnect=0;portConstraint=eastwest;newEdgeStyle={&quot;edgeStyle&quot;:&quot;elbowEdgeStyle&quot;,&quot;elbow&quot;:&quot;vertical&quot;,&quot;curved&quot;:0,&quot;rounded&quot;:0};" parent="1" vertex="1">
          <mxGeometry x="410" y="120" width="100" height="480" as="geometry" />
        </mxCell>
        <mxCell id="jUwvyouOoQi546NdjQ4p-9" style="edgeStyle=elbowEdgeStyle;rounded=0;orthogonalLoop=1;jettySize=auto;html=1;elbow=horizontal;curved=0;" parent="1" source="jUwvyouOoQi546NdjQ4p-3" target="jUwvyouOoQi546NdjQ4p-1" edge="1">
          <mxGeometry relative="1" as="geometry">
            <Array as="points">
              <mxPoint x="230" y="210" />
            </Array>
          </mxGeometry>
        </mxCell>
        <mxCell id="jUwvyouOoQi546NdjQ4p-10" value="Get(id)" style="edgeLabel;html=1;align=center;verticalAlign=middle;resizable=0;points=[];" parent="jUwvyouOoQi546NdjQ4p-9" vertex="1" connectable="0">
          <mxGeometry x="0.4214" y="-5" relative="1" as="geometry">
            <mxPoint x="1" y="-5" as="offset" />
          </mxGeometry>
        </mxCell>
        <mxCell id="jUwvyouOoQi546NdjQ4p-3" value="Usuario" style="shape=umlLifeline;perimeter=lifelinePerimeter;whiteSpace=wrap;html=1;container=1;dropTarget=0;collapsible=0;recursiveResize=0;outlineConnect=0;portConstraint=eastwest;newEdgeStyle={&quot;edgeStyle&quot;:&quot;elbowEdgeStyle&quot;,&quot;elbow&quot;:&quot;vertical&quot;,&quot;curved&quot;:0,&quot;rounded&quot;:0};" parent="1" vertex="1">
          <mxGeometry x="110" y="120" width="100" height="490" as="geometry" />
        </mxCell>
        <mxCell id="c0EYbXlExEsQ9aOfK5cL-6" style="edgeStyle=elbowEdgeStyle;rounded=0;orthogonalLoop=1;jettySize=auto;html=1;elbow=vertical;curved=0;" parent="1" source="jUwvyouOoQi546NdjQ4p-4" target="jUwvyouOoQi546NdjQ4p-5" edge="1">
          <mxGeometry relative="1" as="geometry">
            <Array as="points">
              <mxPoint x="820" y="290" />
            </Array>
          </mxGeometry>
        </mxCell>
        <mxCell id="c0EYbXlExEsQ9aOfK5cL-7" value="Handle(GetEmpleadoQuery)" style="edgeLabel;html=1;align=center;verticalAlign=middle;resizable=0;points=[];" parent="c0EYbXlExEsQ9aOfK5cL-6" vertex="1" connectable="0">
          <mxGeometry x="0.3771" y="3" relative="1" as="geometry">
            <mxPoint x="-16" as="offset" />
          </mxGeometry>
        </mxCell>
        <mxCell id="c0EYbXlExEsQ9aOfK5cL-10" style="edgeStyle=elbowEdgeStyle;rounded=0;orthogonalLoop=1;jettySize=auto;html=1;elbow=horizontal;curved=0;dashed=1;" parent="1" source="jUwvyouOoQi546NdjQ4p-4" target="jUwvyouOoQi546NdjQ4p-2" edge="1">
          <mxGeometry relative="1" as="geometry">
            <Array as="points">
              <mxPoint x="600" y="510" />
            </Array>
          </mxGeometry>
        </mxCell>
        <mxCell id="c0EYbXlExEsQ9aOfK5cL-11" value="InternalResponse&amp;lt;Empleado&amp;gt;" style="edgeLabel;html=1;align=center;verticalAlign=middle;resizable=0;points=[];" parent="c0EYbXlExEsQ9aOfK5cL-10" vertex="1" connectable="0">
          <mxGeometry x="-0.0556" y="-4" relative="1" as="geometry">
            <mxPoint as="offset" />
          </mxGeometry>
        </mxCell>
        <mxCell id="jUwvyouOoQi546NdjQ4p-4" value="QueryDispatcher" style="shape=umlLifeline;perimeter=lifelinePerimeter;whiteSpace=wrap;html=1;container=1;dropTarget=0;collapsible=0;recursiveResize=0;outlineConnect=0;portConstraint=eastwest;newEdgeStyle={&quot;edgeStyle&quot;:&quot;elbowEdgeStyle&quot;,&quot;elbow&quot;:&quot;vertical&quot;,&quot;curved&quot;:0,&quot;rounded&quot;:0};" parent="1" vertex="1">
          <mxGeometry x="680" y="120" width="100" height="490" as="geometry" />
        </mxCell>
        <mxCell id="c0EYbXlExEsQ9aOfK5cL-8" style="edgeStyle=elbowEdgeStyle;rounded=0;orthogonalLoop=1;jettySize=auto;html=1;elbow=vertical;curved=0;dashed=1;" parent="1" edge="1">
          <mxGeometry relative="1" as="geometry">
            <Array as="points">
              <mxPoint x="810" y="490" />
            </Array>
            <mxPoint x="954.5" y="490" as="sourcePoint" />
            <mxPoint x="729.5" y="490" as="targetPoint" />
          </mxGeometry>
        </mxCell>
        <mxCell id="c0EYbXlExEsQ9aOfK5cL-9" value="InternalResponse&amp;lt;Empleado&amp;gt;" style="edgeLabel;html=1;align=center;verticalAlign=middle;resizable=0;points=[];" parent="c0EYbXlExEsQ9aOfK5cL-8" vertex="1" connectable="0">
          <mxGeometry x="-0.2222" y="1" relative="1" as="geometry">
            <mxPoint x="1" as="offset" />
          </mxGeometry>
        </mxCell>
        <mxCell id="jUwvyouOoQi546NdjQ4p-5" value="EmpleadoQueryHandler" style="shape=umlLifeline;perimeter=lifelinePerimeter;whiteSpace=wrap;html=1;container=1;dropTarget=0;collapsible=0;recursiveResize=0;outlineConnect=0;portConstraint=eastwest;newEdgeStyle={&quot;edgeStyle&quot;:&quot;elbowEdgeStyle&quot;,&quot;elbow&quot;:&quot;vertical&quot;,&quot;curved&quot;:0,&quot;rounded&quot;:0};" parent="1" vertex="1">
          <mxGeometry x="880" y="120" width="150" height="490" as="geometry" />
        </mxCell>
        <mxCell id="c0EYbXlExEsQ9aOfK5cL-19" style="edgeStyle=elbowEdgeStyle;rounded=0;orthogonalLoop=1;jettySize=auto;html=1;elbow=vertical;curved=0;dashed=1;" parent="1" edge="1">
          <mxGeometry relative="1" as="geometry">
            <mxPoint x="955" y="340" as="sourcePoint" />
            <mxPoint x="730" y="340" as="targetPoint" />
            <Array as="points">
              <mxPoint x="810" y="340" />
            </Array>
          </mxGeometry>
        </mxCell>
        <mxCell id="c0EYbXlExEsQ9aOfK5cL-20" value="InternalResponse&amp;lt;object&amp;gt;" style="edgeLabel;html=1;align=center;verticalAlign=middle;resizable=0;points=[];" parent="c0EYbXlExEsQ9aOfK5cL-19" vertex="1" connectable="0">
          <mxGeometry x="-0.2222" y="1" relative="1" as="geometry">
            <mxPoint x="1" as="offset" />
          </mxGeometry>
        </mxCell>
        <mxCell id="c0EYbXlExEsQ9aOfK5cL-23" style="edgeStyle=elbowEdgeStyle;rounded=0;orthogonalLoop=1;jettySize=auto;html=1;elbow=horizontal;curved=0;dashed=1;" parent="1" edge="1">
          <mxGeometry relative="1" as="geometry">
            <mxPoint x="730" y="370" as="sourcePoint" />
            <mxPoint x="460" y="370" as="targetPoint" />
            <Array as="points">
              <mxPoint x="600" y="370" />
            </Array>
          </mxGeometry>
        </mxCell>
        <mxCell id="c0EYbXlExEsQ9aOfK5cL-24" value="InternalResponse&amp;lt;object&amp;gt;" style="edgeLabel;html=1;align=center;verticalAlign=middle;resizable=0;points=[];" parent="c0EYbXlExEsQ9aOfK5cL-23" vertex="1" connectable="0">
          <mxGeometry x="-0.0556" y="-4" relative="1" as="geometry">
            <mxPoint as="offset" />
          </mxGeometry>
        </mxCell>
        <mxCell id="c0EYbXlExEsQ9aOfK5cL-27" style="edgeStyle=elbowEdgeStyle;rounded=0;orthogonalLoop=1;jettySize=auto;html=1;elbow=horizontal;curved=0;dashed=1;" parent="1" edge="1">
          <mxGeometry relative="1" as="geometry">
            <mxPoint x="460" y="410" as="sourcePoint" />
            <mxPoint x="300" y="410" as="targetPoint" />
            <Array as="points">
              <mxPoint x="400" y="410" />
            </Array>
          </mxGeometry>
        </mxCell>
        <mxCell id="c0EYbXlExEsQ9aOfK5cL-28" value="&lt;span style=&quot;color: rgba(0, 0, 0, 0); font-family: monospace; font-size: 0px; text-align: start; background-color: rgb(251, 251, 251);&quot;&gt;%3CmxGraphModel%3E%3Croot%3E%3CmxCell%20id%3D%220%22%2F%3E%3CmxCell%20id%3D%221%22%20parent%3D%220%22%2F%3E%3CmxCell%20id%3D%222%22%20style%3D%22edgeStyle%3DelbowEdgeStyle%3Brounded%3D0%3BorthogonalLoop%3D1%3BjettySize%3Dauto%3Bhtml%3D1%3Belbow%3Dhorizontal%3Bcurved%3D0%3Bdashed%3D1%3B%22%20edge%3D%221%22%20parent%3D%221%22%3E%3CmxGeometry%20relative%3D%221%22%20as%3D%22geometry%22%3E%3CmxPoint%20x%3D%22730%22%20y%3D%22350%22%20as%3D%22sourcePoint%22%2F%3E%3CmxPoint%20x%3D%22460%22%20y%3D%22350%22%20as%3D%22targetPoint%22%2F%3E%3CArray%20as%3D%22points%22%3E%3CmxPoint%20x%3D%22580%22%20y%3D%22350%22%2F%3E%3C%2FArray%3E%3C%2FmxGeometry%3E%3C%2FmxCell%3E%3CmxCell%20id%3D%223%22%20value%3D%22InternalResponse%26amp%3Blt%3BEmpleado%26amp%3Bgt%3B%22%20style%3D%22edgeLabel%3Bhtml%3D1%3Balign%3Dcenter%3BverticalAlign%3Dmiddle%3Bresizable%3D0%3Bpoints%3D%5B%5D%3B%22%20vertex%3D%221%22%20connectable%3D%220%22%20parent%3D%222%22%3E%3CmxGeometry%20x%3D%22-0.0556%22%20y%3D%22-4%22%20relative%3D%221%22%20as%3D%22geometry%22%3E%3CmxPoint%20as%3D%22offset%22%2F%3E%3C%2FmxGeometry%3E%3C%2FmxCell%3E%3C%2Froot%3E%3C%2FmxGraphModel%3E&lt;/span&gt;" style="edgeLabel;html=1;align=center;verticalAlign=middle;resizable=0;points=[];" parent="c0EYbXlExEsQ9aOfK5cL-27" vertex="1" connectable="0">
          <mxGeometry x="0.1063" y="-1" relative="1" as="geometry">
            <mxPoint x="1" as="offset" />
          </mxGeometry>
        </mxCell>
        <mxCell id="c0EYbXlExEsQ9aOfK5cL-29" value="&lt;span style=&quot;color: rgba(0, 0, 0, 0); font-family: monospace; font-size: 0px; text-align: start; background-color: rgb(251, 251, 251);&quot;&gt;%3CmxGraphModel%3E%3Croot%3E%3CmxCell%20id%3D%220%22%2F%3E%3CmxCell%20id%3D%221%22%20parent%3D%220%22%2F%3E%3CmxCell%20id%3D%222%22%20value%3D%22InternalResponse%26amp%3Blt%3BEmpleado%26amp%3Bgt%3B%22%20style%3D%22edgeLabel%3Bhtml%3D1%3Balign%3Dcenter%3BverticalAlign%3Dmiddle%3Bresizable%3D0%3Bpoints%3D%5B%5D%3B%22%20vertex%3D%221%22%20connectable%3D%220%22%20parent%3D%221%22%3E%3CmxGeometry%20x%3D%22602.5%22%20y%3D%22346%22%20as%3D%22geometry%22%2F%3E%3C%2FmxCell%3E%3C%2Froot%3E%3C%2FmxGraphModel%3E&lt;/span&gt;" style="edgeLabel;html=1;align=center;verticalAlign=middle;resizable=0;points=[];" parent="c0EYbXlExEsQ9aOfK5cL-27" vertex="1" connectable="0">
          <mxGeometry x="0.2813" y="2" relative="1" as="geometry">
            <mxPoint x="1" as="offset" />
          </mxGeometry>
        </mxCell>
        <mxCell id="c0EYbXlExEsQ9aOfK5cL-30" value="&lt;span style=&quot;color: rgba(0, 0, 0, 0); font-family: monospace; font-size: 0px; text-align: start; background-color: rgb(251, 251, 251);&quot;&gt;%3CmxGraphModel%3E%3Croot%3E%3CmxCell%20id%3D%220%22%2F%3E%3CmxCell%20id%3D%221%22%20parent%3D%220%22%2F%3E%3CmxCell%20id%3D%222%22%20value%3D%22InternalResponse%26amp%3Blt%3BEmpleado%26amp%3Bgt%3B%22%20style%3D%22edgeLabel%3Bhtml%3D1%3Balign%3Dcenter%3BverticalAlign%3Dmiddle%3Bresizable%3D0%3Bpoints%3D%5B%5D%3B%22%20vertex%3D%221%22%20connectable%3D%220%22%20parent%3D%221%22%3E%3CmxGeometry%20x%3D%22602.5%22%20y%3D%22346%22%20as%3D%22geometry%22%2F%3E%3C%2FmxCell%3E%3C%2Froot%3E%3C%2FmxGraphModel%3E&lt;/span&gt;" style="edgeLabel;html=1;align=center;verticalAlign=middle;resizable=0;points=[];" parent="c0EYbXlExEsQ9aOfK5cL-27" vertex="1" connectable="0">
          <mxGeometry x="0.1313" y="5" relative="1" as="geometry">
            <mxPoint x="1" as="offset" />
          </mxGeometry>
        </mxCell>
        <mxCell id="c0EYbXlExEsQ9aOfK5cL-31" value="InternalResponse&amp;lt;object&amp;gt;" style="edgeLabel;html=1;align=center;verticalAlign=middle;resizable=0;points=[];" parent="c0EYbXlExEsQ9aOfK5cL-27" vertex="1" connectable="0">
          <mxGeometry x="-0.1062" y="-3" relative="1" as="geometry">
            <mxPoint x="1" as="offset" />
          </mxGeometry>
        </mxCell>
        <mxCell id="c0EYbXlExEsQ9aOfK5cL-32" style="edgeStyle=elbowEdgeStyle;rounded=0;orthogonalLoop=1;jettySize=auto;html=1;elbow=vertical;curved=0;dashed=1;" parent="1" edge="1">
          <mxGeometry relative="1" as="geometry">
            <mxPoint x="300" y="570" as="sourcePoint" />
            <mxPoint x="160" y="570" as="targetPoint" />
            <Array as="points">
              <mxPoint x="230" y="570" />
              <mxPoint x="230" y="410" />
            </Array>
          </mxGeometry>
        </mxCell>
        <mxCell id="c0EYbXlExEsQ9aOfK5cL-33" value="Json(Empleado)" style="edgeLabel;html=1;align=center;verticalAlign=middle;resizable=0;points=[];" parent="c0EYbXlExEsQ9aOfK5cL-32" vertex="1" connectable="0">
          <mxGeometry x="-0.2929" y="3" relative="1" as="geometry">
            <mxPoint x="-10" as="offset" />
          </mxGeometry>
        </mxCell>
        <mxCell id="c0EYbXlExEsQ9aOfK5cL-34" style="edgeStyle=elbowEdgeStyle;rounded=0;orthogonalLoop=1;jettySize=auto;html=1;elbow=horizontal;curved=0;dashed=1;" parent="1" edge="1">
          <mxGeometry relative="1" as="geometry">
            <mxPoint x="300" y="440" as="sourcePoint" />
            <mxPoint x="160" y="440" as="targetPoint" />
            <Array as="points">
              <mxPoint x="230" y="440" />
              <mxPoint x="230" y="280" />
            </Array>
          </mxGeometry>
        </mxCell>
        <mxCell id="c0EYbXlExEsQ9aOfK5cL-35" value="NotFound(mensaje)" style="edgeLabel;html=1;align=center;verticalAlign=middle;resizable=0;points=[];" parent="c0EYbXlExEsQ9aOfK5cL-34" vertex="1" connectable="0">
          <mxGeometry x="-0.2929" y="3" relative="1" as="geometry">
            <mxPoint x="-10" as="offset" />
          </mxGeometry>
        </mxCell>
        <mxCell id="c0EYbXlExEsQ9aOfK5cL-36" value="alt" style="shape=umlFrame;whiteSpace=wrap;html=1;pointerEvents=0;" parent="1" vertex="1">
          <mxGeometry x="125" y="300" width="885" height="170" as="geometry" />
        </mxCell>
      </root>
    </mxGraphModel>
  </diagram>
  <diagram name="Diagrama de Secuencia Insert Command" id="Ut8uh9jmAyAS4R4OVRq8">
    <mxGraphModel dx="1238" dy="791" grid="1" gridSize="10" guides="1" tooltips="1" connect="1" arrows="1" fold="1" page="1" pageScale="1" pageWidth="850" pageHeight="1100" math="0" shadow="0">
      <root>
        <mxCell id="y7JvVpvDKAJTJ_hnMKts-0" />
        <mxCell id="y7JvVpvDKAJTJ_hnMKts-1" parent="y7JvVpvDKAJTJ_hnMKts-0" />
        <mxCell id="y7JvVpvDKAJTJ_hnMKts-2" style="edgeStyle=elbowEdgeStyle;rounded=0;orthogonalLoop=1;jettySize=auto;html=1;elbow=vertical;curved=0;" edge="1" parent="y7JvVpvDKAJTJ_hnMKts-1">
          <mxGeometry relative="1" as="geometry">
            <mxPoint x="299.5" y="230" as="sourcePoint" />
            <mxPoint x="459.5" y="230" as="targetPoint" />
          </mxGeometry>
        </mxCell>
        <mxCell id="y7JvVpvDKAJTJ_hnMKts-3" value="Insert(Empleado)" style="edgeLabel;html=1;align=center;verticalAlign=middle;resizable=0;points=[];" vertex="1" connectable="0" parent="y7JvVpvDKAJTJ_hnMKts-2">
          <mxGeometry x="0.5688" y="-3" relative="1" as="geometry">
            <mxPoint y="-3" as="offset" />
          </mxGeometry>
        </mxCell>
        <mxCell id="y7JvVpvDKAJTJ_hnMKts-4" value="EmpleadoController" style="shape=umlLifeline;perimeter=lifelinePerimeter;whiteSpace=wrap;html=1;container=1;dropTarget=0;collapsible=0;recursiveResize=0;outlineConnect=0;portConstraint=eastwest;newEdgeStyle={&quot;edgeStyle&quot;:&quot;elbowEdgeStyle&quot;,&quot;elbow&quot;:&quot;vertical&quot;,&quot;curved&quot;:0,&quot;rounded&quot;:0};" vertex="1" parent="y7JvVpvDKAJTJ_hnMKts-1">
          <mxGeometry x="240" y="120" width="120" height="480" as="geometry" />
        </mxCell>
        <mxCell id="y7JvVpvDKAJTJ_hnMKts-5" style="edgeStyle=elbowEdgeStyle;rounded=0;orthogonalLoop=1;jettySize=auto;html=1;elbow=vertical;curved=0;" edge="1" parent="y7JvVpvDKAJTJ_hnMKts-1" target="y7JvVpvDKAJTJ_hnMKts-20">
          <mxGeometry relative="1" as="geometry">
            <mxPoint x="459.5" y="250" as="sourcePoint" />
            <mxPoint x="609.5" y="250" as="targetPoint" />
            <Array as="points">
              <mxPoint x="550" y="250" />
            </Array>
          </mxGeometry>
        </mxCell>
        <mxCell id="y7JvVpvDKAJTJ_hnMKts-6" value="Dispatch(InsertEmpleadoCommand)" style="edgeLabel;html=1;align=center;verticalAlign=middle;resizable=0;points=[];" vertex="1" connectable="0" parent="y7JvVpvDKAJTJ_hnMKts-5">
          <mxGeometry x="-0.0467" y="2" relative="1" as="geometry">
            <mxPoint x="22" y="2" as="offset" />
          </mxGeometry>
        </mxCell>
        <mxCell id="y7JvVpvDKAJTJ_hnMKts-7" style="edgeStyle=elbowEdgeStyle;rounded=0;orthogonalLoop=1;jettySize=auto;html=1;elbow=horizontal;curved=0;dashed=1;" edge="1" parent="y7JvVpvDKAJTJ_hnMKts-1" source="y7JvVpvDKAJTJ_hnMKts-12" target="y7JvVpvDKAJTJ_hnMKts-4">
          <mxGeometry relative="1" as="geometry">
            <Array as="points">
              <mxPoint x="400" y="540" />
            </Array>
          </mxGeometry>
        </mxCell>
        <mxCell id="y7JvVpvDKAJTJ_hnMKts-8" value="&lt;span style=&quot;color: rgba(0, 0, 0, 0); font-family: monospace; font-size: 0px; text-align: start; background-color: rgb(251, 251, 251);&quot;&gt;%3CmxGraphModel%3E%3Croot%3E%3CmxCell%20id%3D%220%22%2F%3E%3CmxCell%20id%3D%221%22%20parent%3D%220%22%2F%3E%3CmxCell%20id%3D%222%22%20style%3D%22edgeStyle%3DelbowEdgeStyle%3Brounded%3D0%3BorthogonalLoop%3D1%3BjettySize%3Dauto%3Bhtml%3D1%3Belbow%3Dhorizontal%3Bcurved%3D0%3Bdashed%3D1%3B%22%20edge%3D%221%22%20parent%3D%221%22%3E%3CmxGeometry%20relative%3D%221%22%20as%3D%22geometry%22%3E%3CmxPoint%20x%3D%22730%22%20y%3D%22350%22%20as%3D%22sourcePoint%22%2F%3E%3CmxPoint%20x%3D%22460%22%20y%3D%22350%22%20as%3D%22targetPoint%22%2F%3E%3CArray%20as%3D%22points%22%3E%3CmxPoint%20x%3D%22580%22%20y%3D%22350%22%2F%3E%3C%2FArray%3E%3C%2FmxGeometry%3E%3C%2FmxCell%3E%3CmxCell%20id%3D%223%22%20value%3D%22InternalResponse%26amp%3Blt%3BEmpleado%26amp%3Bgt%3B%22%20style%3D%22edgeLabel%3Bhtml%3D1%3Balign%3Dcenter%3BverticalAlign%3Dmiddle%3Bresizable%3D0%3Bpoints%3D%5B%5D%3B%22%20vertex%3D%221%22%20connectable%3D%220%22%20parent%3D%222%22%3E%3CmxGeometry%20x%3D%22-0.0556%22%20y%3D%22-4%22%20relative%3D%221%22%20as%3D%22geometry%22%3E%3CmxPoint%20as%3D%22offset%22%2F%3E%3C%2FmxGeometry%3E%3C%2FmxCell%3E%3C%2Froot%3E%3C%2FmxGraphModel%3E&lt;/span&gt;" style="edgeLabel;html=1;align=center;verticalAlign=middle;resizable=0;points=[];" vertex="1" connectable="0" parent="y7JvVpvDKAJTJ_hnMKts-7">
          <mxGeometry x="0.1063" y="-1" relative="1" as="geometry">
            <mxPoint x="1" as="offset" />
          </mxGeometry>
        </mxCell>
        <mxCell id="y7JvVpvDKAJTJ_hnMKts-9" value="&lt;span style=&quot;color: rgba(0, 0, 0, 0); font-family: monospace; font-size: 0px; text-align: start; background-color: rgb(251, 251, 251);&quot;&gt;%3CmxGraphModel%3E%3Croot%3E%3CmxCell%20id%3D%220%22%2F%3E%3CmxCell%20id%3D%221%22%20parent%3D%220%22%2F%3E%3CmxCell%20id%3D%222%22%20value%3D%22InternalResponse%26amp%3Blt%3BEmpleado%26amp%3Bgt%3B%22%20style%3D%22edgeLabel%3Bhtml%3D1%3Balign%3Dcenter%3BverticalAlign%3Dmiddle%3Bresizable%3D0%3Bpoints%3D%5B%5D%3B%22%20vertex%3D%221%22%20connectable%3D%220%22%20parent%3D%221%22%3E%3CmxGeometry%20x%3D%22602.5%22%20y%3D%22346%22%20as%3D%22geometry%22%2F%3E%3C%2FmxCell%3E%3C%2Froot%3E%3C%2FmxGraphModel%3E&lt;/span&gt;" style="edgeLabel;html=1;align=center;verticalAlign=middle;resizable=0;points=[];" vertex="1" connectable="0" parent="y7JvVpvDKAJTJ_hnMKts-7">
          <mxGeometry x="0.2813" y="2" relative="1" as="geometry">
            <mxPoint x="1" as="offset" />
          </mxGeometry>
        </mxCell>
        <mxCell id="y7JvVpvDKAJTJ_hnMKts-10" value="&lt;span style=&quot;color: rgba(0, 0, 0, 0); font-family: monospace; font-size: 0px; text-align: start; background-color: rgb(251, 251, 251);&quot;&gt;%3CmxGraphModel%3E%3Croot%3E%3CmxCell%20id%3D%220%22%2F%3E%3CmxCell%20id%3D%221%22%20parent%3D%220%22%2F%3E%3CmxCell%20id%3D%222%22%20value%3D%22InternalResponse%26amp%3Blt%3BEmpleado%26amp%3Bgt%3B%22%20style%3D%22edgeLabel%3Bhtml%3D1%3Balign%3Dcenter%3BverticalAlign%3Dmiddle%3Bresizable%3D0%3Bpoints%3D%5B%5D%3B%22%20vertex%3D%221%22%20connectable%3D%220%22%20parent%3D%221%22%3E%3CmxGeometry%20x%3D%22602.5%22%20y%3D%22346%22%20as%3D%22geometry%22%2F%3E%3C%2FmxCell%3E%3C%2Froot%3E%3C%2FmxGraphModel%3E&lt;/span&gt;" style="edgeLabel;html=1;align=center;verticalAlign=middle;resizable=0;points=[];" vertex="1" connectable="0" parent="y7JvVpvDKAJTJ_hnMKts-7">
          <mxGeometry x="0.1313" y="5" relative="1" as="geometry">
            <mxPoint x="1" as="offset" />
          </mxGeometry>
        </mxCell>
        <mxCell id="y7JvVpvDKAJTJ_hnMKts-11" value="InternalResponse&amp;lt;Empleado&amp;gt;" style="edgeLabel;html=1;align=center;verticalAlign=middle;resizable=0;points=[];" vertex="1" connectable="0" parent="y7JvVpvDKAJTJ_hnMKts-7">
          <mxGeometry x="-0.1062" y="-3" relative="1" as="geometry">
            <mxPoint x="1" as="offset" />
          </mxGeometry>
        </mxCell>
        <mxCell id="y7JvVpvDKAJTJ_hnMKts-12" value="EmpleadoService" style="shape=umlLifeline;perimeter=lifelinePerimeter;whiteSpace=wrap;html=1;container=1;dropTarget=0;collapsible=0;recursiveResize=0;outlineConnect=0;portConstraint=eastwest;newEdgeStyle={&quot;edgeStyle&quot;:&quot;elbowEdgeStyle&quot;,&quot;elbow&quot;:&quot;vertical&quot;,&quot;curved&quot;:0,&quot;rounded&quot;:0};" vertex="1" parent="y7JvVpvDKAJTJ_hnMKts-1">
          <mxGeometry x="410" y="120" width="100" height="480" as="geometry" />
        </mxCell>
        <mxCell id="y7JvVpvDKAJTJ_hnMKts-13" style="edgeStyle=elbowEdgeStyle;rounded=0;orthogonalLoop=1;jettySize=auto;html=1;elbow=horizontal;curved=0;" edge="1" parent="y7JvVpvDKAJTJ_hnMKts-1" source="y7JvVpvDKAJTJ_hnMKts-15" target="y7JvVpvDKAJTJ_hnMKts-4">
          <mxGeometry relative="1" as="geometry">
            <Array as="points">
              <mxPoint x="230" y="210" />
            </Array>
          </mxGeometry>
        </mxCell>
        <mxCell id="y7JvVpvDKAJTJ_hnMKts-14" value="Insert(Empleado)" style="edgeLabel;html=1;align=center;verticalAlign=middle;resizable=0;points=[];" vertex="1" connectable="0" parent="y7JvVpvDKAJTJ_hnMKts-13">
          <mxGeometry x="0.4214" y="-5" relative="1" as="geometry">
            <mxPoint x="1" y="-5" as="offset" />
          </mxGeometry>
        </mxCell>
        <mxCell id="y7JvVpvDKAJTJ_hnMKts-15" value="Usuario" style="shape=umlLifeline;perimeter=lifelinePerimeter;whiteSpace=wrap;html=1;container=1;dropTarget=0;collapsible=0;recursiveResize=0;outlineConnect=0;portConstraint=eastwest;newEdgeStyle={&quot;edgeStyle&quot;:&quot;elbowEdgeStyle&quot;,&quot;elbow&quot;:&quot;vertical&quot;,&quot;curved&quot;:0,&quot;rounded&quot;:0};" vertex="1" parent="y7JvVpvDKAJTJ_hnMKts-1">
          <mxGeometry x="110" y="120" width="100" height="490" as="geometry" />
        </mxCell>
        <mxCell id="y7JvVpvDKAJTJ_hnMKts-16" style="edgeStyle=elbowEdgeStyle;rounded=0;orthogonalLoop=1;jettySize=auto;html=1;elbow=vertical;curved=0;" edge="1" parent="y7JvVpvDKAJTJ_hnMKts-1" source="y7JvVpvDKAJTJ_hnMKts-20" target="y7JvVpvDKAJTJ_hnMKts-23">
          <mxGeometry relative="1" as="geometry">
            <Array as="points">
              <mxPoint x="820" y="290" />
            </Array>
          </mxGeometry>
        </mxCell>
        <mxCell id="y7JvVpvDKAJTJ_hnMKts-17" value="Handle(InsertEmpledoCommand)" style="edgeLabel;html=1;align=center;verticalAlign=middle;resizable=0;points=[];" vertex="1" connectable="0" parent="y7JvVpvDKAJTJ_hnMKts-16">
          <mxGeometry x="0.3771" y="3" relative="1" as="geometry">
            <mxPoint x="-16" as="offset" />
          </mxGeometry>
        </mxCell>
        <mxCell id="y7JvVpvDKAJTJ_hnMKts-18" style="edgeStyle=elbowEdgeStyle;rounded=0;orthogonalLoop=1;jettySize=auto;html=1;elbow=horizontal;curved=0;dashed=1;" edge="1" parent="y7JvVpvDKAJTJ_hnMKts-1" source="y7JvVpvDKAJTJ_hnMKts-20" target="y7JvVpvDKAJTJ_hnMKts-12">
          <mxGeometry relative="1" as="geometry">
            <Array as="points">
              <mxPoint x="600" y="510" />
            </Array>
          </mxGeometry>
        </mxCell>
        <mxCell id="y7JvVpvDKAJTJ_hnMKts-19" value="InternalResponse&amp;lt;Empleado&amp;gt;" style="edgeLabel;html=1;align=center;verticalAlign=middle;resizable=0;points=[];" vertex="1" connectable="0" parent="y7JvVpvDKAJTJ_hnMKts-18">
          <mxGeometry x="-0.0556" y="-4" relative="1" as="geometry">
            <mxPoint as="offset" />
          </mxGeometry>
        </mxCell>
        <mxCell id="y7JvVpvDKAJTJ_hnMKts-20" value="CommandDispatcher" style="shape=umlLifeline;perimeter=lifelinePerimeter;whiteSpace=wrap;html=1;container=1;dropTarget=0;collapsible=0;recursiveResize=0;outlineConnect=0;portConstraint=eastwest;newEdgeStyle={&quot;edgeStyle&quot;:&quot;elbowEdgeStyle&quot;,&quot;elbow&quot;:&quot;vertical&quot;,&quot;curved&quot;:0,&quot;rounded&quot;:0};" vertex="1" parent="y7JvVpvDKAJTJ_hnMKts-1">
          <mxGeometry x="680" y="120" width="100" height="490" as="geometry" />
        </mxCell>
        <mxCell id="y7JvVpvDKAJTJ_hnMKts-21" style="edgeStyle=elbowEdgeStyle;rounded=0;orthogonalLoop=1;jettySize=auto;html=1;elbow=vertical;curved=0;dashed=1;" edge="1" parent="y7JvVpvDKAJTJ_hnMKts-1">
          <mxGeometry relative="1" as="geometry">
            <Array as="points">
              <mxPoint x="810" y="490" />
            </Array>
            <mxPoint x="954.5" y="490" as="sourcePoint" />
            <mxPoint x="729.5" y="490" as="targetPoint" />
          </mxGeometry>
        </mxCell>
        <mxCell id="y7JvVpvDKAJTJ_hnMKts-22" value="InternalResponse&amp;lt;Empleado&amp;gt;" style="edgeLabel;html=1;align=center;verticalAlign=middle;resizable=0;points=[];" vertex="1" connectable="0" parent="y7JvVpvDKAJTJ_hnMKts-21">
          <mxGeometry x="-0.2222" y="1" relative="1" as="geometry">
            <mxPoint x="1" as="offset" />
          </mxGeometry>
        </mxCell>
        <mxCell id="y7JvVpvDKAJTJ_hnMKts-23" value="EmpleadoCommandHandler" style="shape=umlLifeline;perimeter=lifelinePerimeter;whiteSpace=wrap;html=1;container=1;dropTarget=0;collapsible=0;recursiveResize=0;outlineConnect=0;portConstraint=eastwest;newEdgeStyle={&quot;edgeStyle&quot;:&quot;elbowEdgeStyle&quot;,&quot;elbow&quot;:&quot;vertical&quot;,&quot;curved&quot;:0,&quot;rounded&quot;:0};" vertex="1" parent="y7JvVpvDKAJTJ_hnMKts-1">
          <mxGeometry x="880" y="120" width="150" height="490" as="geometry" />
        </mxCell>
        <mxCell id="y7JvVpvDKAJTJ_hnMKts-24" style="edgeStyle=elbowEdgeStyle;rounded=0;orthogonalLoop=1;jettySize=auto;html=1;elbow=vertical;curved=0;dashed=1;" edge="1" parent="y7JvVpvDKAJTJ_hnMKts-1">
          <mxGeometry relative="1" as="geometry">
            <mxPoint x="955" y="340" as="sourcePoint" />
            <mxPoint x="730" y="340" as="targetPoint" />
            <Array as="points">
              <mxPoint x="810" y="340" />
            </Array>
          </mxGeometry>
        </mxCell>
        <mxCell id="y7JvVpvDKAJTJ_hnMKts-25" value="InternalResponse&amp;lt;objectl&amp;gt;" style="edgeLabel;html=1;align=center;verticalAlign=middle;resizable=0;points=[];" vertex="1" connectable="0" parent="y7JvVpvDKAJTJ_hnMKts-24">
          <mxGeometry x="-0.2222" y="1" relative="1" as="geometry">
            <mxPoint x="1" as="offset" />
          </mxGeometry>
        </mxCell>
        <mxCell id="y7JvVpvDKAJTJ_hnMKts-26" style="edgeStyle=elbowEdgeStyle;rounded=0;orthogonalLoop=1;jettySize=auto;html=1;elbow=horizontal;curved=0;dashed=1;" edge="1" parent="y7JvVpvDKAJTJ_hnMKts-1">
          <mxGeometry relative="1" as="geometry">
            <mxPoint x="730" y="370" as="sourcePoint" />
            <mxPoint x="460" y="370" as="targetPoint" />
            <Array as="points">
              <mxPoint x="600" y="370" />
            </Array>
          </mxGeometry>
        </mxCell>
        <mxCell id="y7JvVpvDKAJTJ_hnMKts-27" value="InternalResponse&amp;lt;object&amp;gt;" style="edgeLabel;html=1;align=center;verticalAlign=middle;resizable=0;points=[];" vertex="1" connectable="0" parent="y7JvVpvDKAJTJ_hnMKts-26">
          <mxGeometry x="-0.0556" y="-4" relative="1" as="geometry">
            <mxPoint as="offset" />
          </mxGeometry>
        </mxCell>
        <mxCell id="y7JvVpvDKAJTJ_hnMKts-28" style="edgeStyle=elbowEdgeStyle;rounded=0;orthogonalLoop=1;jettySize=auto;html=1;elbow=horizontal;curved=0;dashed=1;" edge="1" parent="y7JvVpvDKAJTJ_hnMKts-1">
          <mxGeometry relative="1" as="geometry">
            <mxPoint x="460" y="410" as="sourcePoint" />
            <mxPoint x="300" y="410" as="targetPoint" />
            <Array as="points">
              <mxPoint x="400" y="410" />
            </Array>
          </mxGeometry>
        </mxCell>
        <mxCell id="y7JvVpvDKAJTJ_hnMKts-29" value="&lt;span style=&quot;color: rgba(0, 0, 0, 0); font-family: monospace; font-size: 0px; text-align: start; background-color: rgb(251, 251, 251);&quot;&gt;%3CmxGraphModel%3E%3Croot%3E%3CmxCell%20id%3D%220%22%2F%3E%3CmxCell%20id%3D%221%22%20parent%3D%220%22%2F%3E%3CmxCell%20id%3D%222%22%20style%3D%22edgeStyle%3DelbowEdgeStyle%3Brounded%3D0%3BorthogonalLoop%3D1%3BjettySize%3Dauto%3Bhtml%3D1%3Belbow%3Dhorizontal%3Bcurved%3D0%3Bdashed%3D1%3B%22%20edge%3D%221%22%20parent%3D%221%22%3E%3CmxGeometry%20relative%3D%221%22%20as%3D%22geometry%22%3E%3CmxPoint%20x%3D%22730%22%20y%3D%22350%22%20as%3D%22sourcePoint%22%2F%3E%3CmxPoint%20x%3D%22460%22%20y%3D%22350%22%20as%3D%22targetPoint%22%2F%3E%3CArray%20as%3D%22points%22%3E%3CmxPoint%20x%3D%22580%22%20y%3D%22350%22%2F%3E%3C%2FArray%3E%3C%2FmxGeometry%3E%3C%2FmxCell%3E%3CmxCell%20id%3D%223%22%20value%3D%22InternalResponse%26amp%3Blt%3BEmpleado%26amp%3Bgt%3B%22%20style%3D%22edgeLabel%3Bhtml%3D1%3Balign%3Dcenter%3BverticalAlign%3Dmiddle%3Bresizable%3D0%3Bpoints%3D%5B%5D%3B%22%20vertex%3D%221%22%20connectable%3D%220%22%20parent%3D%222%22%3E%3CmxGeometry%20x%3D%22-0.0556%22%20y%3D%22-4%22%20relative%3D%221%22%20as%3D%22geometry%22%3E%3CmxPoint%20as%3D%22offset%22%2F%3E%3C%2FmxGeometry%3E%3C%2FmxCell%3E%3C%2Froot%3E%3C%2FmxGraphModel%3E&lt;/span&gt;" style="edgeLabel;html=1;align=center;verticalAlign=middle;resizable=0;points=[];" vertex="1" connectable="0" parent="y7JvVpvDKAJTJ_hnMKts-28">
          <mxGeometry x="0.1063" y="-1" relative="1" as="geometry">
            <mxPoint x="1" as="offset" />
          </mxGeometry>
        </mxCell>
        <mxCell id="y7JvVpvDKAJTJ_hnMKts-30" value="&lt;span style=&quot;color: rgba(0, 0, 0, 0); font-family: monospace; font-size: 0px; text-align: start; background-color: rgb(251, 251, 251);&quot;&gt;%3CmxGraphModel%3E%3Croot%3E%3CmxCell%20id%3D%220%22%2F%3E%3CmxCell%20id%3D%221%22%20parent%3D%220%22%2F%3E%3CmxCell%20id%3D%222%22%20value%3D%22InternalResponse%26amp%3Blt%3BEmpleado%26amp%3Bgt%3B%22%20style%3D%22edgeLabel%3Bhtml%3D1%3Balign%3Dcenter%3BverticalAlign%3Dmiddle%3Bresizable%3D0%3Bpoints%3D%5B%5D%3B%22%20vertex%3D%221%22%20connectable%3D%220%22%20parent%3D%221%22%3E%3CmxGeometry%20x%3D%22602.5%22%20y%3D%22346%22%20as%3D%22geometry%22%2F%3E%3C%2FmxCell%3E%3C%2Froot%3E%3C%2FmxGraphModel%3E&lt;/span&gt;" style="edgeLabel;html=1;align=center;verticalAlign=middle;resizable=0;points=[];" vertex="1" connectable="0" parent="y7JvVpvDKAJTJ_hnMKts-28">
          <mxGeometry x="0.2813" y="2" relative="1" as="geometry">
            <mxPoint x="1" as="offset" />
          </mxGeometry>
        </mxCell>
        <mxCell id="y7JvVpvDKAJTJ_hnMKts-31" value="&lt;span style=&quot;color: rgba(0, 0, 0, 0); font-family: monospace; font-size: 0px; text-align: start; background-color: rgb(251, 251, 251);&quot;&gt;%3CmxGraphModel%3E%3Croot%3E%3CmxCell%20id%3D%220%22%2F%3E%3CmxCell%20id%3D%221%22%20parent%3D%220%22%2F%3E%3CmxCell%20id%3D%222%22%20value%3D%22InternalResponse%26amp%3Blt%3BEmpleado%26amp%3Bgt%3B%22%20style%3D%22edgeLabel%3Bhtml%3D1%3Balign%3Dcenter%3BverticalAlign%3Dmiddle%3Bresizable%3D0%3Bpoints%3D%5B%5D%3B%22%20vertex%3D%221%22%20connectable%3D%220%22%20parent%3D%221%22%3E%3CmxGeometry%20x%3D%22602.5%22%20y%3D%22346%22%20as%3D%22geometry%22%2F%3E%3C%2FmxCell%3E%3C%2Froot%3E%3C%2FmxGraphModel%3E&lt;/span&gt;" style="edgeLabel;html=1;align=center;verticalAlign=middle;resizable=0;points=[];" vertex="1" connectable="0" parent="y7JvVpvDKAJTJ_hnMKts-28">
          <mxGeometry x="0.1313" y="5" relative="1" as="geometry">
            <mxPoint x="1" as="offset" />
          </mxGeometry>
        </mxCell>
        <mxCell id="y7JvVpvDKAJTJ_hnMKts-32" value="InternalResponse&amp;lt;object&amp;gt;" style="edgeLabel;html=1;align=center;verticalAlign=middle;resizable=0;points=[];" vertex="1" connectable="0" parent="y7JvVpvDKAJTJ_hnMKts-28">
          <mxGeometry x="-0.1062" y="-3" relative="1" as="geometry">
            <mxPoint x="1" as="offset" />
          </mxGeometry>
        </mxCell>
        <mxCell id="y7JvVpvDKAJTJ_hnMKts-33" style="edgeStyle=elbowEdgeStyle;rounded=0;orthogonalLoop=1;jettySize=auto;html=1;elbow=vertical;curved=0;dashed=1;" edge="1" parent="y7JvVpvDKAJTJ_hnMKts-1">
          <mxGeometry relative="1" as="geometry">
            <mxPoint x="300" y="570" as="sourcePoint" />
            <mxPoint x="160" y="570" as="targetPoint" />
            <Array as="points">
              <mxPoint x="230" y="570" />
              <mxPoint x="230" y="410" />
            </Array>
          </mxGeometry>
        </mxCell>
        <mxCell id="y7JvVpvDKAJTJ_hnMKts-34" value="Json(Empleado)" style="edgeLabel;html=1;align=center;verticalAlign=middle;resizable=0;points=[];" vertex="1" connectable="0" parent="y7JvVpvDKAJTJ_hnMKts-33">
          <mxGeometry x="-0.2929" y="3" relative="1" as="geometry">
            <mxPoint x="-10" as="offset" />
          </mxGeometry>
        </mxCell>
        <mxCell id="y7JvVpvDKAJTJ_hnMKts-35" style="edgeStyle=elbowEdgeStyle;rounded=0;orthogonalLoop=1;jettySize=auto;html=1;elbow=horizontal;curved=0;dashed=1;" edge="1" parent="y7JvVpvDKAJTJ_hnMKts-1">
          <mxGeometry relative="1" as="geometry">
            <mxPoint x="300" y="440" as="sourcePoint" />
            <mxPoint x="160" y="440" as="targetPoint" />
            <Array as="points">
              <mxPoint x="230" y="440" />
              <mxPoint x="230" y="280" />
            </Array>
          </mxGeometry>
        </mxCell>
        <mxCell id="y7JvVpvDKAJTJ_hnMKts-36" value="Conflict(mensaje)" style="edgeLabel;html=1;align=center;verticalAlign=middle;resizable=0;points=[];" vertex="1" connectable="0" parent="y7JvVpvDKAJTJ_hnMKts-35">
          <mxGeometry x="-0.2929" y="3" relative="1" as="geometry">
            <mxPoint x="-10" as="offset" />
          </mxGeometry>
        </mxCell>
        <mxCell id="y7JvVpvDKAJTJ_hnMKts-37" value="alt" style="shape=umlFrame;whiteSpace=wrap;html=1;pointerEvents=0;" vertex="1" parent="y7JvVpvDKAJTJ_hnMKts-1">
          <mxGeometry x="125" y="300" width="885" height="170" as="geometry" />
        </mxCell>
      </root>
    </mxGraphModel>
  </diagram>
  <diagram name="Diagrama de Secuencia Update Command" id="GLZxXhQeVfWpohLzemkl">
    <mxGraphModel dx="1238" dy="791" grid="1" gridSize="10" guides="1" tooltips="1" connect="1" arrows="1" fold="1" page="1" pageScale="1" pageWidth="850" pageHeight="1100" math="0" shadow="0">
      <root>
        <mxCell id="6eQ7TlEomxTAfLCRPapF-0" />
        <mxCell id="6eQ7TlEomxTAfLCRPapF-1" parent="6eQ7TlEomxTAfLCRPapF-0" />
        <mxCell id="6eQ7TlEomxTAfLCRPapF-2" style="edgeStyle=elbowEdgeStyle;rounded=0;orthogonalLoop=1;jettySize=auto;html=1;elbow=vertical;curved=0;" edge="1" parent="6eQ7TlEomxTAfLCRPapF-1">
          <mxGeometry relative="1" as="geometry">
            <mxPoint x="299.5" y="230" as="sourcePoint" />
            <mxPoint x="459.5" y="230" as="targetPoint" />
          </mxGeometry>
        </mxCell>
        <mxCell id="6eQ7TlEomxTAfLCRPapF-3" value="Update(Empleado)" style="edgeLabel;html=1;align=center;verticalAlign=middle;resizable=0;points=[];" vertex="1" connectable="0" parent="6eQ7TlEomxTAfLCRPapF-2">
          <mxGeometry x="0.5688" y="-3" relative="1" as="geometry">
            <mxPoint y="-3" as="offset" />
          </mxGeometry>
        </mxCell>
        <mxCell id="6eQ7TlEomxTAfLCRPapF-4" value="EmpleadoController" style="shape=umlLifeline;perimeter=lifelinePerimeter;whiteSpace=wrap;html=1;container=1;dropTarget=0;collapsible=0;recursiveResize=0;outlineConnect=0;portConstraint=eastwest;newEdgeStyle={&quot;edgeStyle&quot;:&quot;elbowEdgeStyle&quot;,&quot;elbow&quot;:&quot;vertical&quot;,&quot;curved&quot;:0,&quot;rounded&quot;:0};" vertex="1" parent="6eQ7TlEomxTAfLCRPapF-1">
          <mxGeometry x="240" y="120" width="120" height="480" as="geometry" />
        </mxCell>
        <mxCell id="6eQ7TlEomxTAfLCRPapF-5" style="edgeStyle=elbowEdgeStyle;rounded=0;orthogonalLoop=1;jettySize=auto;html=1;elbow=vertical;curved=0;" edge="1" parent="6eQ7TlEomxTAfLCRPapF-1" target="6eQ7TlEomxTAfLCRPapF-20">
          <mxGeometry relative="1" as="geometry">
            <mxPoint x="459.5" y="250" as="sourcePoint" />
            <mxPoint x="609.5" y="250" as="targetPoint" />
            <Array as="points">
              <mxPoint x="550" y="250" />
            </Array>
          </mxGeometry>
        </mxCell>
        <mxCell id="6eQ7TlEomxTAfLCRPapF-6" value="Dispatch(UpdatetEmpleadoCommand)" style="edgeLabel;html=1;align=center;verticalAlign=middle;resizable=0;points=[];" vertex="1" connectable="0" parent="6eQ7TlEomxTAfLCRPapF-5">
          <mxGeometry x="-0.0467" y="2" relative="1" as="geometry">
            <mxPoint x="22" y="2" as="offset" />
          </mxGeometry>
        </mxCell>
        <mxCell id="6eQ7TlEomxTAfLCRPapF-7" style="edgeStyle=elbowEdgeStyle;rounded=0;orthogonalLoop=1;jettySize=auto;html=1;elbow=horizontal;curved=0;dashed=1;" edge="1" parent="6eQ7TlEomxTAfLCRPapF-1" source="6eQ7TlEomxTAfLCRPapF-12" target="6eQ7TlEomxTAfLCRPapF-4">
          <mxGeometry relative="1" as="geometry">
            <Array as="points">
              <mxPoint x="400" y="540" />
            </Array>
          </mxGeometry>
        </mxCell>
        <mxCell id="6eQ7TlEomxTAfLCRPapF-8" value="&lt;span style=&quot;color: rgba(0, 0, 0, 0); font-family: monospace; font-size: 0px; text-align: start; background-color: rgb(251, 251, 251);&quot;&gt;%3CmxGraphModel%3E%3Croot%3E%3CmxCell%20id%3D%220%22%2F%3E%3CmxCell%20id%3D%221%22%20parent%3D%220%22%2F%3E%3CmxCell%20id%3D%222%22%20style%3D%22edgeStyle%3DelbowEdgeStyle%3Brounded%3D0%3BorthogonalLoop%3D1%3BjettySize%3Dauto%3Bhtml%3D1%3Belbow%3Dhorizontal%3Bcurved%3D0%3Bdashed%3D1%3B%22%20edge%3D%221%22%20parent%3D%221%22%3E%3CmxGeometry%20relative%3D%221%22%20as%3D%22geometry%22%3E%3CmxPoint%20x%3D%22730%22%20y%3D%22350%22%20as%3D%22sourcePoint%22%2F%3E%3CmxPoint%20x%3D%22460%22%20y%3D%22350%22%20as%3D%22targetPoint%22%2F%3E%3CArray%20as%3D%22points%22%3E%3CmxPoint%20x%3D%22580%22%20y%3D%22350%22%2F%3E%3C%2FArray%3E%3C%2FmxGeometry%3E%3C%2FmxCell%3E%3CmxCell%20id%3D%223%22%20value%3D%22InternalResponse%26amp%3Blt%3BEmpleado%26amp%3Bgt%3B%22%20style%3D%22edgeLabel%3Bhtml%3D1%3Balign%3Dcenter%3BverticalAlign%3Dmiddle%3Bresizable%3D0%3Bpoints%3D%5B%5D%3B%22%20vertex%3D%221%22%20connectable%3D%220%22%20parent%3D%222%22%3E%3CmxGeometry%20x%3D%22-0.0556%22%20y%3D%22-4%22%20relative%3D%221%22%20as%3D%22geometry%22%3E%3CmxPoint%20as%3D%22offset%22%2F%3E%3C%2FmxGeometry%3E%3C%2FmxCell%3E%3C%2Froot%3E%3C%2FmxGraphModel%3E&lt;/span&gt;" style="edgeLabel;html=1;align=center;verticalAlign=middle;resizable=0;points=[];" vertex="1" connectable="0" parent="6eQ7TlEomxTAfLCRPapF-7">
          <mxGeometry x="0.1063" y="-1" relative="1" as="geometry">
            <mxPoint x="1" as="offset" />
          </mxGeometry>
        </mxCell>
        <mxCell id="6eQ7TlEomxTAfLCRPapF-9" value="&lt;span style=&quot;color: rgba(0, 0, 0, 0); font-family: monospace; font-size: 0px; text-align: start; background-color: rgb(251, 251, 251);&quot;&gt;%3CmxGraphModel%3E%3Croot%3E%3CmxCell%20id%3D%220%22%2F%3E%3CmxCell%20id%3D%221%22%20parent%3D%220%22%2F%3E%3CmxCell%20id%3D%222%22%20value%3D%22InternalResponse%26amp%3Blt%3BEmpleado%26amp%3Bgt%3B%22%20style%3D%22edgeLabel%3Bhtml%3D1%3Balign%3Dcenter%3BverticalAlign%3Dmiddle%3Bresizable%3D0%3Bpoints%3D%5B%5D%3B%22%20vertex%3D%221%22%20connectable%3D%220%22%20parent%3D%221%22%3E%3CmxGeometry%20x%3D%22602.5%22%20y%3D%22346%22%20as%3D%22geometry%22%2F%3E%3C%2FmxCell%3E%3C%2Froot%3E%3C%2FmxGraphModel%3E&lt;/span&gt;" style="edgeLabel;html=1;align=center;verticalAlign=middle;resizable=0;points=[];" vertex="1" connectable="0" parent="6eQ7TlEomxTAfLCRPapF-7">
          <mxGeometry x="0.2813" y="2" relative="1" as="geometry">
            <mxPoint x="1" as="offset" />
          </mxGeometry>
        </mxCell>
        <mxCell id="6eQ7TlEomxTAfLCRPapF-10" value="&lt;span style=&quot;color: rgba(0, 0, 0, 0); font-family: monospace; font-size: 0px; text-align: start; background-color: rgb(251, 251, 251);&quot;&gt;%3CmxGraphModel%3E%3Croot%3E%3CmxCell%20id%3D%220%22%2F%3E%3CmxCell%20id%3D%221%22%20parent%3D%220%22%2F%3E%3CmxCell%20id%3D%222%22%20value%3D%22InternalResponse%26amp%3Blt%3BEmpleado%26amp%3Bgt%3B%22%20style%3D%22edgeLabel%3Bhtml%3D1%3Balign%3Dcenter%3BverticalAlign%3Dmiddle%3Bresizable%3D0%3Bpoints%3D%5B%5D%3B%22%20vertex%3D%221%22%20connectable%3D%220%22%20parent%3D%221%22%3E%3CmxGeometry%20x%3D%22602.5%22%20y%3D%22346%22%20as%3D%22geometry%22%2F%3E%3C%2FmxCell%3E%3C%2Froot%3E%3C%2FmxGraphModel%3E&lt;/span&gt;" style="edgeLabel;html=1;align=center;verticalAlign=middle;resizable=0;points=[];" vertex="1" connectable="0" parent="6eQ7TlEomxTAfLCRPapF-7">
          <mxGeometry x="0.1313" y="5" relative="1" as="geometry">
            <mxPoint x="1" as="offset" />
          </mxGeometry>
        </mxCell>
        <mxCell id="6eQ7TlEomxTAfLCRPapF-11" value="InternalResponse&amp;lt;Empleado&amp;gt;" style="edgeLabel;html=1;align=center;verticalAlign=middle;resizable=0;points=[];" vertex="1" connectable="0" parent="6eQ7TlEomxTAfLCRPapF-7">
          <mxGeometry x="-0.1062" y="-3" relative="1" as="geometry">
            <mxPoint x="1" as="offset" />
          </mxGeometry>
        </mxCell>
        <mxCell id="6eQ7TlEomxTAfLCRPapF-12" value="EmpleadoService" style="shape=umlLifeline;perimeter=lifelinePerimeter;whiteSpace=wrap;html=1;container=1;dropTarget=0;collapsible=0;recursiveResize=0;outlineConnect=0;portConstraint=eastwest;newEdgeStyle={&quot;edgeStyle&quot;:&quot;elbowEdgeStyle&quot;,&quot;elbow&quot;:&quot;vertical&quot;,&quot;curved&quot;:0,&quot;rounded&quot;:0};" vertex="1" parent="6eQ7TlEomxTAfLCRPapF-1">
          <mxGeometry x="410" y="120" width="100" height="480" as="geometry" />
        </mxCell>
        <mxCell id="6eQ7TlEomxTAfLCRPapF-13" style="edgeStyle=elbowEdgeStyle;rounded=0;orthogonalLoop=1;jettySize=auto;html=1;elbow=horizontal;curved=0;" edge="1" parent="6eQ7TlEomxTAfLCRPapF-1" source="6eQ7TlEomxTAfLCRPapF-15" target="6eQ7TlEomxTAfLCRPapF-4">
          <mxGeometry relative="1" as="geometry">
            <Array as="points">
              <mxPoint x="230" y="210" />
            </Array>
          </mxGeometry>
        </mxCell>
        <mxCell id="6eQ7TlEomxTAfLCRPapF-14" value="Update(Empleado)" style="edgeLabel;html=1;align=center;verticalAlign=middle;resizable=0;points=[];" vertex="1" connectable="0" parent="6eQ7TlEomxTAfLCRPapF-13">
          <mxGeometry x="0.4214" y="-5" relative="1" as="geometry">
            <mxPoint x="1" y="-5" as="offset" />
          </mxGeometry>
        </mxCell>
        <mxCell id="6eQ7TlEomxTAfLCRPapF-15" value="Usuario" style="shape=umlLifeline;perimeter=lifelinePerimeter;whiteSpace=wrap;html=1;container=1;dropTarget=0;collapsible=0;recursiveResize=0;outlineConnect=0;portConstraint=eastwest;newEdgeStyle={&quot;edgeStyle&quot;:&quot;elbowEdgeStyle&quot;,&quot;elbow&quot;:&quot;vertical&quot;,&quot;curved&quot;:0,&quot;rounded&quot;:0};" vertex="1" parent="6eQ7TlEomxTAfLCRPapF-1">
          <mxGeometry x="110" y="120" width="100" height="490" as="geometry" />
        </mxCell>
        <mxCell id="6eQ7TlEomxTAfLCRPapF-16" style="edgeStyle=elbowEdgeStyle;rounded=0;orthogonalLoop=1;jettySize=auto;html=1;elbow=vertical;curved=0;" edge="1" parent="6eQ7TlEomxTAfLCRPapF-1" source="6eQ7TlEomxTAfLCRPapF-20" target="6eQ7TlEomxTAfLCRPapF-23">
          <mxGeometry relative="1" as="geometry">
            <Array as="points">
              <mxPoint x="820" y="290" />
            </Array>
          </mxGeometry>
        </mxCell>
        <mxCell id="6eQ7TlEomxTAfLCRPapF-17" value="Handle(UpdateEmpledoCommand)" style="edgeLabel;html=1;align=center;verticalAlign=middle;resizable=0;points=[];" vertex="1" connectable="0" parent="6eQ7TlEomxTAfLCRPapF-16">
          <mxGeometry x="0.3771" y="3" relative="1" as="geometry">
            <mxPoint x="-16" as="offset" />
          </mxGeometry>
        </mxCell>
        <mxCell id="6eQ7TlEomxTAfLCRPapF-18" style="edgeStyle=elbowEdgeStyle;rounded=0;orthogonalLoop=1;jettySize=auto;html=1;elbow=horizontal;curved=0;dashed=1;" edge="1" parent="6eQ7TlEomxTAfLCRPapF-1" source="6eQ7TlEomxTAfLCRPapF-20" target="6eQ7TlEomxTAfLCRPapF-12">
          <mxGeometry relative="1" as="geometry">
            <Array as="points">
              <mxPoint x="600" y="510" />
            </Array>
          </mxGeometry>
        </mxCell>
        <mxCell id="6eQ7TlEomxTAfLCRPapF-19" value="InternalResponse&amp;lt;Empleado&amp;gt;" style="edgeLabel;html=1;align=center;verticalAlign=middle;resizable=0;points=[];" vertex="1" connectable="0" parent="6eQ7TlEomxTAfLCRPapF-18">
          <mxGeometry x="-0.0556" y="-4" relative="1" as="geometry">
            <mxPoint as="offset" />
          </mxGeometry>
        </mxCell>
        <mxCell id="6eQ7TlEomxTAfLCRPapF-20" value="CommandDispatcher" style="shape=umlLifeline;perimeter=lifelinePerimeter;whiteSpace=wrap;html=1;container=1;dropTarget=0;collapsible=0;recursiveResize=0;outlineConnect=0;portConstraint=eastwest;newEdgeStyle={&quot;edgeStyle&quot;:&quot;elbowEdgeStyle&quot;,&quot;elbow&quot;:&quot;vertical&quot;,&quot;curved&quot;:0,&quot;rounded&quot;:0};" vertex="1" parent="6eQ7TlEomxTAfLCRPapF-1">
          <mxGeometry x="680" y="120" width="100" height="490" as="geometry" />
        </mxCell>
        <mxCell id="6eQ7TlEomxTAfLCRPapF-21" style="edgeStyle=elbowEdgeStyle;rounded=0;orthogonalLoop=1;jettySize=auto;html=1;elbow=vertical;curved=0;dashed=1;" edge="1" parent="6eQ7TlEomxTAfLCRPapF-1">
          <mxGeometry relative="1" as="geometry">
            <Array as="points">
              <mxPoint x="810" y="490" />
            </Array>
            <mxPoint x="954.5" y="490" as="sourcePoint" />
            <mxPoint x="729.5" y="490" as="targetPoint" />
          </mxGeometry>
        </mxCell>
        <mxCell id="6eQ7TlEomxTAfLCRPapF-22" value="InternalResponse&amp;lt;Empleado&amp;gt;" style="edgeLabel;html=1;align=center;verticalAlign=middle;resizable=0;points=[];" vertex="1" connectable="0" parent="6eQ7TlEomxTAfLCRPapF-21">
          <mxGeometry x="-0.2222" y="1" relative="1" as="geometry">
            <mxPoint x="1" as="offset" />
          </mxGeometry>
        </mxCell>
        <mxCell id="6eQ7TlEomxTAfLCRPapF-23" value="EmpleadoCommandHandler" style="shape=umlLifeline;perimeter=lifelinePerimeter;whiteSpace=wrap;html=1;container=1;dropTarget=0;collapsible=0;recursiveResize=0;outlineConnect=0;portConstraint=eastwest;newEdgeStyle={&quot;edgeStyle&quot;:&quot;elbowEdgeStyle&quot;,&quot;elbow&quot;:&quot;vertical&quot;,&quot;curved&quot;:0,&quot;rounded&quot;:0};" vertex="1" parent="6eQ7TlEomxTAfLCRPapF-1">
          <mxGeometry x="880" y="120" width="150" height="490" as="geometry" />
        </mxCell>
        <mxCell id="6eQ7TlEomxTAfLCRPapF-24" style="edgeStyle=elbowEdgeStyle;rounded=0;orthogonalLoop=1;jettySize=auto;html=1;elbow=vertical;curved=0;dashed=1;" edge="1" parent="6eQ7TlEomxTAfLCRPapF-1">
          <mxGeometry relative="1" as="geometry">
            <mxPoint x="955" y="340" as="sourcePoint" />
            <mxPoint x="730" y="340" as="targetPoint" />
            <Array as="points">
              <mxPoint x="810" y="340" />
            </Array>
          </mxGeometry>
        </mxCell>
        <mxCell id="6eQ7TlEomxTAfLCRPapF-25" value="InternalResponse&amp;lt;objectl&amp;gt;" style="edgeLabel;html=1;align=center;verticalAlign=middle;resizable=0;points=[];" vertex="1" connectable="0" parent="6eQ7TlEomxTAfLCRPapF-24">
          <mxGeometry x="-0.2222" y="1" relative="1" as="geometry">
            <mxPoint x="1" as="offset" />
          </mxGeometry>
        </mxCell>
        <mxCell id="6eQ7TlEomxTAfLCRPapF-26" style="edgeStyle=elbowEdgeStyle;rounded=0;orthogonalLoop=1;jettySize=auto;html=1;elbow=horizontal;curved=0;dashed=1;" edge="1" parent="6eQ7TlEomxTAfLCRPapF-1">
          <mxGeometry relative="1" as="geometry">
            <mxPoint x="730" y="370" as="sourcePoint" />
            <mxPoint x="460" y="370" as="targetPoint" />
            <Array as="points">
              <mxPoint x="600" y="370" />
            </Array>
          </mxGeometry>
        </mxCell>
        <mxCell id="6eQ7TlEomxTAfLCRPapF-27" value="InternalResponse&amp;lt;object&amp;gt;" style="edgeLabel;html=1;align=center;verticalAlign=middle;resizable=0;points=[];" vertex="1" connectable="0" parent="6eQ7TlEomxTAfLCRPapF-26">
          <mxGeometry x="-0.0556" y="-4" relative="1" as="geometry">
            <mxPoint as="offset" />
          </mxGeometry>
        </mxCell>
        <mxCell id="6eQ7TlEomxTAfLCRPapF-28" style="edgeStyle=elbowEdgeStyle;rounded=0;orthogonalLoop=1;jettySize=auto;html=1;elbow=horizontal;curved=0;dashed=1;" edge="1" parent="6eQ7TlEomxTAfLCRPapF-1">
          <mxGeometry relative="1" as="geometry">
            <mxPoint x="460" y="410" as="sourcePoint" />
            <mxPoint x="300" y="410" as="targetPoint" />
            <Array as="points">
              <mxPoint x="400" y="410" />
            </Array>
          </mxGeometry>
        </mxCell>
        <mxCell id="6eQ7TlEomxTAfLCRPapF-29" value="&lt;span style=&quot;color: rgba(0, 0, 0, 0); font-family: monospace; font-size: 0px; text-align: start; background-color: rgb(251, 251, 251);&quot;&gt;%3CmxGraphModel%3E%3Croot%3E%3CmxCell%20id%3D%220%22%2F%3E%3CmxCell%20id%3D%221%22%20parent%3D%220%22%2F%3E%3CmxCell%20id%3D%222%22%20style%3D%22edgeStyle%3DelbowEdgeStyle%3Brounded%3D0%3BorthogonalLoop%3D1%3BjettySize%3Dauto%3Bhtml%3D1%3Belbow%3Dhorizontal%3Bcurved%3D0%3Bdashed%3D1%3B%22%20edge%3D%221%22%20parent%3D%221%22%3E%3CmxGeometry%20relative%3D%221%22%20as%3D%22geometry%22%3E%3CmxPoint%20x%3D%22730%22%20y%3D%22350%22%20as%3D%22sourcePoint%22%2F%3E%3CmxPoint%20x%3D%22460%22%20y%3D%22350%22%20as%3D%22targetPoint%22%2F%3E%3CArray%20as%3D%22points%22%3E%3CmxPoint%20x%3D%22580%22%20y%3D%22350%22%2F%3E%3C%2FArray%3E%3C%2FmxGeometry%3E%3C%2FmxCell%3E%3CmxCell%20id%3D%223%22%20value%3D%22InternalResponse%26amp%3Blt%3BEmpleado%26amp%3Bgt%3B%22%20style%3D%22edgeLabel%3Bhtml%3D1%3Balign%3Dcenter%3BverticalAlign%3Dmiddle%3Bresizable%3D0%3Bpoints%3D%5B%5D%3B%22%20vertex%3D%221%22%20connectable%3D%220%22%20parent%3D%222%22%3E%3CmxGeometry%20x%3D%22-0.0556%22%20y%3D%22-4%22%20relative%3D%221%22%20as%3D%22geometry%22%3E%3CmxPoint%20as%3D%22offset%22%2F%3E%3C%2FmxGeometry%3E%3C%2FmxCell%3E%3C%2Froot%3E%3C%2FmxGraphModel%3E&lt;/span&gt;" style="edgeLabel;html=1;align=center;verticalAlign=middle;resizable=0;points=[];" vertex="1" connectable="0" parent="6eQ7TlEomxTAfLCRPapF-28">
          <mxGeometry x="0.1063" y="-1" relative="1" as="geometry">
            <mxPoint x="1" as="offset" />
          </mxGeometry>
        </mxCell>
        <mxCell id="6eQ7TlEomxTAfLCRPapF-30" value="&lt;span style=&quot;color: rgba(0, 0, 0, 0); font-family: monospace; font-size: 0px; text-align: start; background-color: rgb(251, 251, 251);&quot;&gt;%3CmxGraphModel%3E%3Croot%3E%3CmxCell%20id%3D%220%22%2F%3E%3CmxCell%20id%3D%221%22%20parent%3D%220%22%2F%3E%3CmxCell%20id%3D%222%22%20value%3D%22InternalResponse%26amp%3Blt%3BEmpleado%26amp%3Bgt%3B%22%20style%3D%22edgeLabel%3Bhtml%3D1%3Balign%3Dcenter%3BverticalAlign%3Dmiddle%3Bresizable%3D0%3Bpoints%3D%5B%5D%3B%22%20vertex%3D%221%22%20connectable%3D%220%22%20parent%3D%221%22%3E%3CmxGeometry%20x%3D%22602.5%22%20y%3D%22346%22%20as%3D%22geometry%22%2F%3E%3C%2FmxCell%3E%3C%2Froot%3E%3C%2FmxGraphModel%3E&lt;/span&gt;" style="edgeLabel;html=1;align=center;verticalAlign=middle;resizable=0;points=[];" vertex="1" connectable="0" parent="6eQ7TlEomxTAfLCRPapF-28">
          <mxGeometry x="0.2813" y="2" relative="1" as="geometry">
            <mxPoint x="1" as="offset" />
          </mxGeometry>
        </mxCell>
        <mxCell id="6eQ7TlEomxTAfLCRPapF-31" value="&lt;span style=&quot;color: rgba(0, 0, 0, 0); font-family: monospace; font-size: 0px; text-align: start; background-color: rgb(251, 251, 251);&quot;&gt;%3CmxGraphModel%3E%3Croot%3E%3CmxCell%20id%3D%220%22%2F%3E%3CmxCell%20id%3D%221%22%20parent%3D%220%22%2F%3E%3CmxCell%20id%3D%222%22%20value%3D%22InternalResponse%26amp%3Blt%3BEmpleado%26amp%3Bgt%3B%22%20style%3D%22edgeLabel%3Bhtml%3D1%3Balign%3Dcenter%3BverticalAlign%3Dmiddle%3Bresizable%3D0%3Bpoints%3D%5B%5D%3B%22%20vertex%3D%221%22%20connectable%3D%220%22%20parent%3D%221%22%3E%3CmxGeometry%20x%3D%22602.5%22%20y%3D%22346%22%20as%3D%22geometry%22%2F%3E%3C%2FmxCell%3E%3C%2Froot%3E%3C%2FmxGraphModel%3E&lt;/span&gt;" style="edgeLabel;html=1;align=center;verticalAlign=middle;resizable=0;points=[];" vertex="1" connectable="0" parent="6eQ7TlEomxTAfLCRPapF-28">
          <mxGeometry x="0.1313" y="5" relative="1" as="geometry">
            <mxPoint x="1" as="offset" />
          </mxGeometry>
        </mxCell>
        <mxCell id="6eQ7TlEomxTAfLCRPapF-32" value="InternalResponse&amp;lt;object&amp;gt;" style="edgeLabel;html=1;align=center;verticalAlign=middle;resizable=0;points=[];" vertex="1" connectable="0" parent="6eQ7TlEomxTAfLCRPapF-28">
          <mxGeometry x="-0.1062" y="-3" relative="1" as="geometry">
            <mxPoint x="1" as="offset" />
          </mxGeometry>
        </mxCell>
        <mxCell id="6eQ7TlEomxTAfLCRPapF-33" style="edgeStyle=elbowEdgeStyle;rounded=0;orthogonalLoop=1;jettySize=auto;html=1;elbow=vertical;curved=0;dashed=1;" edge="1" parent="6eQ7TlEomxTAfLCRPapF-1">
          <mxGeometry relative="1" as="geometry">
            <mxPoint x="300" y="570" as="sourcePoint" />
            <mxPoint x="160" y="570" as="targetPoint" />
            <Array as="points">
              <mxPoint x="230" y="570" />
              <mxPoint x="230" y="410" />
            </Array>
          </mxGeometry>
        </mxCell>
        <mxCell id="6eQ7TlEomxTAfLCRPapF-34" value="Json(Empleado)" style="edgeLabel;html=1;align=center;verticalAlign=middle;resizable=0;points=[];" vertex="1" connectable="0" parent="6eQ7TlEomxTAfLCRPapF-33">
          <mxGeometry x="-0.2929" y="3" relative="1" as="geometry">
            <mxPoint x="-10" as="offset" />
          </mxGeometry>
        </mxCell>
        <mxCell id="6eQ7TlEomxTAfLCRPapF-35" style="edgeStyle=elbowEdgeStyle;rounded=0;orthogonalLoop=1;jettySize=auto;html=1;elbow=horizontal;curved=0;dashed=1;" edge="1" parent="6eQ7TlEomxTAfLCRPapF-1">
          <mxGeometry relative="1" as="geometry">
            <mxPoint x="300" y="440" as="sourcePoint" />
            <mxPoint x="160" y="440" as="targetPoint" />
            <Array as="points">
              <mxPoint x="230" y="440" />
              <mxPoint x="230" y="280" />
            </Array>
          </mxGeometry>
        </mxCell>
        <mxCell id="6eQ7TlEomxTAfLCRPapF-36" value="Conflict(mensaje)" style="edgeLabel;html=1;align=center;verticalAlign=middle;resizable=0;points=[];" vertex="1" connectable="0" parent="6eQ7TlEomxTAfLCRPapF-35">
          <mxGeometry x="-0.2929" y="3" relative="1" as="geometry">
            <mxPoint x="-10" as="offset" />
          </mxGeometry>
        </mxCell>
        <mxCell id="6eQ7TlEomxTAfLCRPapF-37" value="alt" style="shape=umlFrame;whiteSpace=wrap;html=1;pointerEvents=0;" vertex="1" parent="6eQ7TlEomxTAfLCRPapF-1">
          <mxGeometry x="125" y="300" width="885" height="180" as="geometry" />
        </mxCell>
        <mxCell id="Qrsfyy7MIC_DE9sC0_99-0" style="edgeStyle=elbowEdgeStyle;rounded=0;orthogonalLoop=1;jettySize=auto;html=1;elbow=horizontal;curved=0;dashed=1;" edge="1" parent="6eQ7TlEomxTAfLCRPapF-1">
          <mxGeometry relative="1" as="geometry">
            <mxPoint x="300" y="460" as="sourcePoint" />
            <mxPoint x="160" y="460" as="targetPoint" />
            <Array as="points">
              <mxPoint x="230" y="460" />
              <mxPoint x="230" y="300" />
            </Array>
          </mxGeometry>
        </mxCell>
        <mxCell id="Qrsfyy7MIC_DE9sC0_99-1" value="NotFound(mensaje)" style="edgeLabel;html=1;align=center;verticalAlign=middle;resizable=0;points=[];" vertex="1" connectable="0" parent="Qrsfyy7MIC_DE9sC0_99-0">
          <mxGeometry x="-0.2929" y="3" relative="1" as="geometry">
            <mxPoint x="-10" as="offset" />
          </mxGeometry>
        </mxCell>
      </root>
    </mxGraphModel>
  </diagram>
  <diagram name="Diagrama de Secuencia Delete Command" id="QvrVJA6QepxRo0cBbMVg">
    <mxGraphModel dx="1238" dy="791" grid="1" gridSize="10" guides="1" tooltips="1" connect="1" arrows="1" fold="1" page="1" pageScale="1" pageWidth="850" pageHeight="1100" math="0" shadow="0">
      <root>
        <mxCell id="T9E7yNEiLnd001IsM9cg-0" />
        <mxCell id="T9E7yNEiLnd001IsM9cg-1" parent="T9E7yNEiLnd001IsM9cg-0" />
        <mxCell id="T9E7yNEiLnd001IsM9cg-2" style="edgeStyle=elbowEdgeStyle;rounded=0;orthogonalLoop=1;jettySize=auto;html=1;elbow=vertical;curved=0;" edge="1" parent="T9E7yNEiLnd001IsM9cg-1">
          <mxGeometry relative="1" as="geometry">
            <mxPoint x="299.5" y="230" as="sourcePoint" />
            <mxPoint x="459.5" y="230" as="targetPoint" />
          </mxGeometry>
        </mxCell>
        <mxCell id="T9E7yNEiLnd001IsM9cg-3" value="Delete(Id)" style="edgeLabel;html=1;align=center;verticalAlign=middle;resizable=0;points=[];" vertex="1" connectable="0" parent="T9E7yNEiLnd001IsM9cg-2">
          <mxGeometry x="0.5688" y="-3" relative="1" as="geometry">
            <mxPoint y="-3" as="offset" />
          </mxGeometry>
        </mxCell>
        <mxCell id="T9E7yNEiLnd001IsM9cg-4" value="EmpleadoController" style="shape=umlLifeline;perimeter=lifelinePerimeter;whiteSpace=wrap;html=1;container=1;dropTarget=0;collapsible=0;recursiveResize=0;outlineConnect=0;portConstraint=eastwest;newEdgeStyle={&quot;edgeStyle&quot;:&quot;elbowEdgeStyle&quot;,&quot;elbow&quot;:&quot;vertical&quot;,&quot;curved&quot;:0,&quot;rounded&quot;:0};" vertex="1" parent="T9E7yNEiLnd001IsM9cg-1">
          <mxGeometry x="240" y="120" width="120" height="480" as="geometry" />
        </mxCell>
        <mxCell id="T9E7yNEiLnd001IsM9cg-5" style="edgeStyle=elbowEdgeStyle;rounded=0;orthogonalLoop=1;jettySize=auto;html=1;elbow=vertical;curved=0;" edge="1" parent="T9E7yNEiLnd001IsM9cg-1" target="T9E7yNEiLnd001IsM9cg-20">
          <mxGeometry relative="1" as="geometry">
            <mxPoint x="459.5" y="250" as="sourcePoint" />
            <mxPoint x="609.5" y="250" as="targetPoint" />
            <Array as="points">
              <mxPoint x="550" y="250" />
            </Array>
          </mxGeometry>
        </mxCell>
        <mxCell id="T9E7yNEiLnd001IsM9cg-6" value="Dispatch(DeleteEmpleadoCommand)" style="edgeLabel;html=1;align=center;verticalAlign=middle;resizable=0;points=[];" vertex="1" connectable="0" parent="T9E7yNEiLnd001IsM9cg-5">
          <mxGeometry x="-0.0467" y="2" relative="1" as="geometry">
            <mxPoint x="22" y="2" as="offset" />
          </mxGeometry>
        </mxCell>
        <mxCell id="T9E7yNEiLnd001IsM9cg-7" style="edgeStyle=elbowEdgeStyle;rounded=0;orthogonalLoop=1;jettySize=auto;html=1;elbow=horizontal;curved=0;dashed=1;" edge="1" parent="T9E7yNEiLnd001IsM9cg-1" source="T9E7yNEiLnd001IsM9cg-12" target="T9E7yNEiLnd001IsM9cg-4">
          <mxGeometry relative="1" as="geometry">
            <Array as="points">
              <mxPoint x="400" y="540" />
            </Array>
          </mxGeometry>
        </mxCell>
        <mxCell id="T9E7yNEiLnd001IsM9cg-8" value="&lt;span style=&quot;color: rgba(0, 0, 0, 0); font-family: monospace; font-size: 0px; text-align: start; background-color: rgb(251, 251, 251);&quot;&gt;%3CmxGraphModel%3E%3Croot%3E%3CmxCell%20id%3D%220%22%2F%3E%3CmxCell%20id%3D%221%22%20parent%3D%220%22%2F%3E%3CmxCell%20id%3D%222%22%20style%3D%22edgeStyle%3DelbowEdgeStyle%3Brounded%3D0%3BorthogonalLoop%3D1%3BjettySize%3Dauto%3Bhtml%3D1%3Belbow%3Dhorizontal%3Bcurved%3D0%3Bdashed%3D1%3B%22%20edge%3D%221%22%20parent%3D%221%22%3E%3CmxGeometry%20relative%3D%221%22%20as%3D%22geometry%22%3E%3CmxPoint%20x%3D%22730%22%20y%3D%22350%22%20as%3D%22sourcePoint%22%2F%3E%3CmxPoint%20x%3D%22460%22%20y%3D%22350%22%20as%3D%22targetPoint%22%2F%3E%3CArray%20as%3D%22points%22%3E%3CmxPoint%20x%3D%22580%22%20y%3D%22350%22%2F%3E%3C%2FArray%3E%3C%2FmxGeometry%3E%3C%2FmxCell%3E%3CmxCell%20id%3D%223%22%20value%3D%22InternalResponse%26amp%3Blt%3BEmpleado%26amp%3Bgt%3B%22%20style%3D%22edgeLabel%3Bhtml%3D1%3Balign%3Dcenter%3BverticalAlign%3Dmiddle%3Bresizable%3D0%3Bpoints%3D%5B%5D%3B%22%20vertex%3D%221%22%20connectable%3D%220%22%20parent%3D%222%22%3E%3CmxGeometry%20x%3D%22-0.0556%22%20y%3D%22-4%22%20relative%3D%221%22%20as%3D%22geometry%22%3E%3CmxPoint%20as%3D%22offset%22%2F%3E%3C%2FmxGeometry%3E%3C%2FmxCell%3E%3C%2Froot%3E%3C%2FmxGraphModel%3E&lt;/span&gt;" style="edgeLabel;html=1;align=center;verticalAlign=middle;resizable=0;points=[];" vertex="1" connectable="0" parent="T9E7yNEiLnd001IsM9cg-7">
          <mxGeometry x="0.1063" y="-1" relative="1" as="geometry">
            <mxPoint x="1" as="offset" />
          </mxGeometry>
        </mxCell>
        <mxCell id="T9E7yNEiLnd001IsM9cg-9" value="&lt;span style=&quot;color: rgba(0, 0, 0, 0); font-family: monospace; font-size: 0px; text-align: start; background-color: rgb(251, 251, 251);&quot;&gt;%3CmxGraphModel%3E%3Croot%3E%3CmxCell%20id%3D%220%22%2F%3E%3CmxCell%20id%3D%221%22%20parent%3D%220%22%2F%3E%3CmxCell%20id%3D%222%22%20value%3D%22InternalResponse%26amp%3Blt%3BEmpleado%26amp%3Bgt%3B%22%20style%3D%22edgeLabel%3Bhtml%3D1%3Balign%3Dcenter%3BverticalAlign%3Dmiddle%3Bresizable%3D0%3Bpoints%3D%5B%5D%3B%22%20vertex%3D%221%22%20connectable%3D%220%22%20parent%3D%221%22%3E%3CmxGeometry%20x%3D%22602.5%22%20y%3D%22346%22%20as%3D%22geometry%22%2F%3E%3C%2FmxCell%3E%3C%2Froot%3E%3C%2FmxGraphModel%3E&lt;/span&gt;" style="edgeLabel;html=1;align=center;verticalAlign=middle;resizable=0;points=[];" vertex="1" connectable="0" parent="T9E7yNEiLnd001IsM9cg-7">
          <mxGeometry x="0.2813" y="2" relative="1" as="geometry">
            <mxPoint x="1" as="offset" />
          </mxGeometry>
        </mxCell>
        <mxCell id="T9E7yNEiLnd001IsM9cg-10" value="&lt;span style=&quot;color: rgba(0, 0, 0, 0); font-family: monospace; font-size: 0px; text-align: start; background-color: rgb(251, 251, 251);&quot;&gt;%3CmxGraphModel%3E%3Croot%3E%3CmxCell%20id%3D%220%22%2F%3E%3CmxCell%20id%3D%221%22%20parent%3D%220%22%2F%3E%3CmxCell%20id%3D%222%22%20value%3D%22InternalResponse%26amp%3Blt%3BEmpleado%26amp%3Bgt%3B%22%20style%3D%22edgeLabel%3Bhtml%3D1%3Balign%3Dcenter%3BverticalAlign%3Dmiddle%3Bresizable%3D0%3Bpoints%3D%5B%5D%3B%22%20vertex%3D%221%22%20connectable%3D%220%22%20parent%3D%221%22%3E%3CmxGeometry%20x%3D%22602.5%22%20y%3D%22346%22%20as%3D%22geometry%22%2F%3E%3C%2FmxCell%3E%3C%2Froot%3E%3C%2FmxGraphModel%3E&lt;/span&gt;" style="edgeLabel;html=1;align=center;verticalAlign=middle;resizable=0;points=[];" vertex="1" connectable="0" parent="T9E7yNEiLnd001IsM9cg-7">
          <mxGeometry x="0.1313" y="5" relative="1" as="geometry">
            <mxPoint x="1" as="offset" />
          </mxGeometry>
        </mxCell>
        <mxCell id="T9E7yNEiLnd001IsM9cg-11" value="InternalResponse&amp;lt;object&amp;gt;" style="edgeLabel;html=1;align=center;verticalAlign=middle;resizable=0;points=[];" vertex="1" connectable="0" parent="T9E7yNEiLnd001IsM9cg-7">
          <mxGeometry x="-0.1062" y="-3" relative="1" as="geometry">
            <mxPoint x="1" as="offset" />
          </mxGeometry>
        </mxCell>
        <mxCell id="T9E7yNEiLnd001IsM9cg-12" value="EmpleadoService" style="shape=umlLifeline;perimeter=lifelinePerimeter;whiteSpace=wrap;html=1;container=1;dropTarget=0;collapsible=0;recursiveResize=0;outlineConnect=0;portConstraint=eastwest;newEdgeStyle={&quot;edgeStyle&quot;:&quot;elbowEdgeStyle&quot;,&quot;elbow&quot;:&quot;vertical&quot;,&quot;curved&quot;:0,&quot;rounded&quot;:0};" vertex="1" parent="T9E7yNEiLnd001IsM9cg-1">
          <mxGeometry x="410" y="120" width="100" height="480" as="geometry" />
        </mxCell>
        <mxCell id="T9E7yNEiLnd001IsM9cg-13" style="edgeStyle=elbowEdgeStyle;rounded=0;orthogonalLoop=1;jettySize=auto;html=1;elbow=horizontal;curved=0;" edge="1" parent="T9E7yNEiLnd001IsM9cg-1" source="T9E7yNEiLnd001IsM9cg-15" target="T9E7yNEiLnd001IsM9cg-4">
          <mxGeometry relative="1" as="geometry">
            <Array as="points">
              <mxPoint x="230" y="210" />
            </Array>
          </mxGeometry>
        </mxCell>
        <mxCell id="T9E7yNEiLnd001IsM9cg-14" value="Delete(id)" style="edgeLabel;html=1;align=center;verticalAlign=middle;resizable=0;points=[];" vertex="1" connectable="0" parent="T9E7yNEiLnd001IsM9cg-13">
          <mxGeometry x="0.4214" y="-5" relative="1" as="geometry">
            <mxPoint x="1" y="-5" as="offset" />
          </mxGeometry>
        </mxCell>
        <mxCell id="T9E7yNEiLnd001IsM9cg-15" value="Usuario" style="shape=umlLifeline;perimeter=lifelinePerimeter;whiteSpace=wrap;html=1;container=1;dropTarget=0;collapsible=0;recursiveResize=0;outlineConnect=0;portConstraint=eastwest;newEdgeStyle={&quot;edgeStyle&quot;:&quot;elbowEdgeStyle&quot;,&quot;elbow&quot;:&quot;vertical&quot;,&quot;curved&quot;:0,&quot;rounded&quot;:0};" vertex="1" parent="T9E7yNEiLnd001IsM9cg-1">
          <mxGeometry x="110" y="120" width="100" height="490" as="geometry" />
        </mxCell>
        <mxCell id="T9E7yNEiLnd001IsM9cg-16" style="edgeStyle=elbowEdgeStyle;rounded=0;orthogonalLoop=1;jettySize=auto;html=1;elbow=vertical;curved=0;" edge="1" parent="T9E7yNEiLnd001IsM9cg-1" source="T9E7yNEiLnd001IsM9cg-20" target="T9E7yNEiLnd001IsM9cg-23">
          <mxGeometry relative="1" as="geometry">
            <Array as="points">
              <mxPoint x="820" y="290" />
            </Array>
          </mxGeometry>
        </mxCell>
        <mxCell id="T9E7yNEiLnd001IsM9cg-17" value="Handle(DeleteEmpledoCommand)" style="edgeLabel;html=1;align=center;verticalAlign=middle;resizable=0;points=[];" vertex="1" connectable="0" parent="T9E7yNEiLnd001IsM9cg-16">
          <mxGeometry x="0.3771" y="3" relative="1" as="geometry">
            <mxPoint x="-16" as="offset" />
          </mxGeometry>
        </mxCell>
        <mxCell id="T9E7yNEiLnd001IsM9cg-18" style="edgeStyle=elbowEdgeStyle;rounded=0;orthogonalLoop=1;jettySize=auto;html=1;elbow=horizontal;curved=0;dashed=1;" edge="1" parent="T9E7yNEiLnd001IsM9cg-1" source="T9E7yNEiLnd001IsM9cg-20" target="T9E7yNEiLnd001IsM9cg-12">
          <mxGeometry relative="1" as="geometry">
            <Array as="points">
              <mxPoint x="600" y="510" />
            </Array>
          </mxGeometry>
        </mxCell>
        <mxCell id="T9E7yNEiLnd001IsM9cg-19" value="InternalResponse&amp;lt;object&amp;gt;" style="edgeLabel;html=1;align=center;verticalAlign=middle;resizable=0;points=[];" vertex="1" connectable="0" parent="T9E7yNEiLnd001IsM9cg-18">
          <mxGeometry x="-0.0556" y="-4" relative="1" as="geometry">
            <mxPoint as="offset" />
          </mxGeometry>
        </mxCell>
        <mxCell id="T9E7yNEiLnd001IsM9cg-20" value="CommandDispatcher" style="shape=umlLifeline;perimeter=lifelinePerimeter;whiteSpace=wrap;html=1;container=1;dropTarget=0;collapsible=0;recursiveResize=0;outlineConnect=0;portConstraint=eastwest;newEdgeStyle={&quot;edgeStyle&quot;:&quot;elbowEdgeStyle&quot;,&quot;elbow&quot;:&quot;vertical&quot;,&quot;curved&quot;:0,&quot;rounded&quot;:0};" vertex="1" parent="T9E7yNEiLnd001IsM9cg-1">
          <mxGeometry x="680" y="120" width="100" height="490" as="geometry" />
        </mxCell>
        <mxCell id="T9E7yNEiLnd001IsM9cg-21" style="edgeStyle=elbowEdgeStyle;rounded=0;orthogonalLoop=1;jettySize=auto;html=1;elbow=vertical;curved=0;dashed=1;" edge="1" parent="T9E7yNEiLnd001IsM9cg-1">
          <mxGeometry relative="1" as="geometry">
            <Array as="points">
              <mxPoint x="810" y="490" />
            </Array>
            <mxPoint x="954.5" y="490" as="sourcePoint" />
            <mxPoint x="729.5" y="490" as="targetPoint" />
          </mxGeometry>
        </mxCell>
        <mxCell id="T9E7yNEiLnd001IsM9cg-22" value="InternalResponse&amp;lt;object&amp;gt;" style="edgeLabel;html=1;align=center;verticalAlign=middle;resizable=0;points=[];" vertex="1" connectable="0" parent="T9E7yNEiLnd001IsM9cg-21">
          <mxGeometry x="-0.2222" y="1" relative="1" as="geometry">
            <mxPoint x="1" as="offset" />
          </mxGeometry>
        </mxCell>
        <mxCell id="T9E7yNEiLnd001IsM9cg-23" value="EmpleadoCommandHandler" style="shape=umlLifeline;perimeter=lifelinePerimeter;whiteSpace=wrap;html=1;container=1;dropTarget=0;collapsible=0;recursiveResize=0;outlineConnect=0;portConstraint=eastwest;newEdgeStyle={&quot;edgeStyle&quot;:&quot;elbowEdgeStyle&quot;,&quot;elbow&quot;:&quot;vertical&quot;,&quot;curved&quot;:0,&quot;rounded&quot;:0};" vertex="1" parent="T9E7yNEiLnd001IsM9cg-1">
          <mxGeometry x="880" y="120" width="150" height="490" as="geometry" />
        </mxCell>
        <mxCell id="T9E7yNEiLnd001IsM9cg-24" style="edgeStyle=elbowEdgeStyle;rounded=0;orthogonalLoop=1;jettySize=auto;html=1;elbow=vertical;curved=0;dashed=1;" edge="1" parent="T9E7yNEiLnd001IsM9cg-1">
          <mxGeometry relative="1" as="geometry">
            <mxPoint x="955" y="340" as="sourcePoint" />
            <mxPoint x="730" y="340" as="targetPoint" />
            <Array as="points">
              <mxPoint x="810" y="340" />
            </Array>
          </mxGeometry>
        </mxCell>
        <mxCell id="T9E7yNEiLnd001IsM9cg-25" value="InternalResponse&amp;lt;objectl&amp;gt;" style="edgeLabel;html=1;align=center;verticalAlign=middle;resizable=0;points=[];" vertex="1" connectable="0" parent="T9E7yNEiLnd001IsM9cg-24">
          <mxGeometry x="-0.2222" y="1" relative="1" as="geometry">
            <mxPoint x="1" as="offset" />
          </mxGeometry>
        </mxCell>
        <mxCell id="T9E7yNEiLnd001IsM9cg-26" style="edgeStyle=elbowEdgeStyle;rounded=0;orthogonalLoop=1;jettySize=auto;html=1;elbow=horizontal;curved=0;dashed=1;" edge="1" parent="T9E7yNEiLnd001IsM9cg-1">
          <mxGeometry relative="1" as="geometry">
            <mxPoint x="730" y="370" as="sourcePoint" />
            <mxPoint x="460" y="370" as="targetPoint" />
            <Array as="points">
              <mxPoint x="600" y="370" />
            </Array>
          </mxGeometry>
        </mxCell>
        <mxCell id="T9E7yNEiLnd001IsM9cg-27" value="InternalResponse&amp;lt;object&amp;gt;" style="edgeLabel;html=1;align=center;verticalAlign=middle;resizable=0;points=[];" vertex="1" connectable="0" parent="T9E7yNEiLnd001IsM9cg-26">
          <mxGeometry x="-0.0556" y="-4" relative="1" as="geometry">
            <mxPoint as="offset" />
          </mxGeometry>
        </mxCell>
        <mxCell id="T9E7yNEiLnd001IsM9cg-28" style="edgeStyle=elbowEdgeStyle;rounded=0;orthogonalLoop=1;jettySize=auto;html=1;elbow=horizontal;curved=0;dashed=1;" edge="1" parent="T9E7yNEiLnd001IsM9cg-1">
          <mxGeometry relative="1" as="geometry">
            <mxPoint x="460" y="410" as="sourcePoint" />
            <mxPoint x="300" y="410" as="targetPoint" />
            <Array as="points">
              <mxPoint x="400" y="410" />
            </Array>
          </mxGeometry>
        </mxCell>
        <mxCell id="T9E7yNEiLnd001IsM9cg-29" value="&lt;span style=&quot;color: rgba(0, 0, 0, 0); font-family: monospace; font-size: 0px; text-align: start; background-color: rgb(251, 251, 251);&quot;&gt;%3CmxGraphModel%3E%3Croot%3E%3CmxCell%20id%3D%220%22%2F%3E%3CmxCell%20id%3D%221%22%20parent%3D%220%22%2F%3E%3CmxCell%20id%3D%222%22%20style%3D%22edgeStyle%3DelbowEdgeStyle%3Brounded%3D0%3BorthogonalLoop%3D1%3BjettySize%3Dauto%3Bhtml%3D1%3Belbow%3Dhorizontal%3Bcurved%3D0%3Bdashed%3D1%3B%22%20edge%3D%221%22%20parent%3D%221%22%3E%3CmxGeometry%20relative%3D%221%22%20as%3D%22geometry%22%3E%3CmxPoint%20x%3D%22730%22%20y%3D%22350%22%20as%3D%22sourcePoint%22%2F%3E%3CmxPoint%20x%3D%22460%22%20y%3D%22350%22%20as%3D%22targetPoint%22%2F%3E%3CArray%20as%3D%22points%22%3E%3CmxPoint%20x%3D%22580%22%20y%3D%22350%22%2F%3E%3C%2FArray%3E%3C%2FmxGeometry%3E%3C%2FmxCell%3E%3CmxCell%20id%3D%223%22%20value%3D%22InternalResponse%26amp%3Blt%3BEmpleado%26amp%3Bgt%3B%22%20style%3D%22edgeLabel%3Bhtml%3D1%3Balign%3Dcenter%3BverticalAlign%3Dmiddle%3Bresizable%3D0%3Bpoints%3D%5B%5D%3B%22%20vertex%3D%221%22%20connectable%3D%220%22%20parent%3D%222%22%3E%3CmxGeometry%20x%3D%22-0.0556%22%20y%3D%22-4%22%20relative%3D%221%22%20as%3D%22geometry%22%3E%3CmxPoint%20as%3D%22offset%22%2F%3E%3C%2FmxGeometry%3E%3C%2FmxCell%3E%3C%2Froot%3E%3C%2FmxGraphModel%3E&lt;/span&gt;" style="edgeLabel;html=1;align=center;verticalAlign=middle;resizable=0;points=[];" vertex="1" connectable="0" parent="T9E7yNEiLnd001IsM9cg-28">
          <mxGeometry x="0.1063" y="-1" relative="1" as="geometry">
            <mxPoint x="1" as="offset" />
          </mxGeometry>
        </mxCell>
        <mxCell id="T9E7yNEiLnd001IsM9cg-30" value="&lt;span style=&quot;color: rgba(0, 0, 0, 0); font-family: monospace; font-size: 0px; text-align: start; background-color: rgb(251, 251, 251);&quot;&gt;%3CmxGraphModel%3E%3Croot%3E%3CmxCell%20id%3D%220%22%2F%3E%3CmxCell%20id%3D%221%22%20parent%3D%220%22%2F%3E%3CmxCell%20id%3D%222%22%20value%3D%22InternalResponse%26amp%3Blt%3BEmpleado%26amp%3Bgt%3B%22%20style%3D%22edgeLabel%3Bhtml%3D1%3Balign%3Dcenter%3BverticalAlign%3Dmiddle%3Bresizable%3D0%3Bpoints%3D%5B%5D%3B%22%20vertex%3D%221%22%20connectable%3D%220%22%20parent%3D%221%22%3E%3CmxGeometry%20x%3D%22602.5%22%20y%3D%22346%22%20as%3D%22geometry%22%2F%3E%3C%2FmxCell%3E%3C%2Froot%3E%3C%2FmxGraphModel%3E&lt;/span&gt;" style="edgeLabel;html=1;align=center;verticalAlign=middle;resizable=0;points=[];" vertex="1" connectable="0" parent="T9E7yNEiLnd001IsM9cg-28">
          <mxGeometry x="0.2813" y="2" relative="1" as="geometry">
            <mxPoint x="1" as="offset" />
          </mxGeometry>
        </mxCell>
        <mxCell id="T9E7yNEiLnd001IsM9cg-31" value="&lt;span style=&quot;color: rgba(0, 0, 0, 0); font-family: monospace; font-size: 0px; text-align: start; background-color: rgb(251, 251, 251);&quot;&gt;%3CmxGraphModel%3E%3Croot%3E%3CmxCell%20id%3D%220%22%2F%3E%3CmxCell%20id%3D%221%22%20parent%3D%220%22%2F%3E%3CmxCell%20id%3D%222%22%20value%3D%22InternalResponse%26amp%3Blt%3BEmpleado%26amp%3Bgt%3B%22%20style%3D%22edgeLabel%3Bhtml%3D1%3Balign%3Dcenter%3BverticalAlign%3Dmiddle%3Bresizable%3D0%3Bpoints%3D%5B%5D%3B%22%20vertex%3D%221%22%20connectable%3D%220%22%20parent%3D%221%22%3E%3CmxGeometry%20x%3D%22602.5%22%20y%3D%22346%22%20as%3D%22geometry%22%2F%3E%3C%2FmxCell%3E%3C%2Froot%3E%3C%2FmxGraphModel%3E&lt;/span&gt;" style="edgeLabel;html=1;align=center;verticalAlign=middle;resizable=0;points=[];" vertex="1" connectable="0" parent="T9E7yNEiLnd001IsM9cg-28">
          <mxGeometry x="0.1313" y="5" relative="1" as="geometry">
            <mxPoint x="1" as="offset" />
          </mxGeometry>
        </mxCell>
        <mxCell id="T9E7yNEiLnd001IsM9cg-32" value="InternalResponse&amp;lt;object&amp;gt;" style="edgeLabel;html=1;align=center;verticalAlign=middle;resizable=0;points=[];" vertex="1" connectable="0" parent="T9E7yNEiLnd001IsM9cg-28">
          <mxGeometry x="-0.1062" y="-3" relative="1" as="geometry">
            <mxPoint x="1" as="offset" />
          </mxGeometry>
        </mxCell>
        <mxCell id="T9E7yNEiLnd001IsM9cg-33" style="edgeStyle=elbowEdgeStyle;rounded=0;orthogonalLoop=1;jettySize=auto;html=1;elbow=vertical;curved=0;dashed=1;" edge="1" parent="T9E7yNEiLnd001IsM9cg-1">
          <mxGeometry relative="1" as="geometry">
            <mxPoint x="300" y="570" as="sourcePoint" />
            <mxPoint x="160" y="570" as="targetPoint" />
            <Array as="points">
              <mxPoint x="230" y="570" />
              <mxPoint x="230" y="410" />
            </Array>
          </mxGeometry>
        </mxCell>
        <mxCell id="T9E7yNEiLnd001IsM9cg-34" value="Ok(mensaje)" style="edgeLabel;html=1;align=center;verticalAlign=middle;resizable=0;points=[];" vertex="1" connectable="0" parent="T9E7yNEiLnd001IsM9cg-33">
          <mxGeometry x="-0.2929" y="3" relative="1" as="geometry">
            <mxPoint x="-10" as="offset" />
          </mxGeometry>
        </mxCell>
        <mxCell id="T9E7yNEiLnd001IsM9cg-35" style="edgeStyle=elbowEdgeStyle;rounded=0;orthogonalLoop=1;jettySize=auto;html=1;elbow=horizontal;curved=0;dashed=1;" edge="1" parent="T9E7yNEiLnd001IsM9cg-1">
          <mxGeometry relative="1" as="geometry">
            <mxPoint x="300" y="440" as="sourcePoint" />
            <mxPoint x="160" y="440" as="targetPoint" />
            <Array as="points">
              <mxPoint x="230" y="440" />
              <mxPoint x="230" y="280" />
            </Array>
          </mxGeometry>
        </mxCell>
        <mxCell id="T9E7yNEiLnd001IsM9cg-36" value="NotFound(mensaje)" style="edgeLabel;html=1;align=center;verticalAlign=middle;resizable=0;points=[];" vertex="1" connectable="0" parent="T9E7yNEiLnd001IsM9cg-35">
          <mxGeometry x="-0.2929" y="3" relative="1" as="geometry">
            <mxPoint x="-10" as="offset" />
          </mxGeometry>
        </mxCell>
        <mxCell id="T9E7yNEiLnd001IsM9cg-37" value="alt" style="shape=umlFrame;whiteSpace=wrap;html=1;pointerEvents=0;" vertex="1" parent="T9E7yNEiLnd001IsM9cg-1">
          <mxGeometry x="125" y="300" width="885" height="170" as="geometry" />
        </mxCell>
      </root>
    </mxGraphModel>
  </diagram>
  <diagram id="1xpBkNhMfsz-28M8bz5x" name="Diagrama de Clases">
    <mxGraphModel dx="4006" dy="2031" grid="1" gridSize="10" guides="1" tooltips="1" connect="1" arrows="1" fold="1" page="1" pageScale="1" pageWidth="850" pageHeight="1100" math="0" shadow="0">
      <root>
        <mxCell id="0" />
        <mxCell id="1" parent="0" />
        <mxCell id="DMAtaqnA_2VvERT6udvz-4" value="Empleado" style="swimlane;fontStyle=1;align=center;verticalAlign=top;childLayout=stackLayout;horizontal=1;startSize=26;horizontalStack=0;resizeParent=1;resizeParentMax=0;resizeLast=0;collapsible=1;marginBottom=0;whiteSpace=wrap;html=1;" parent="1" vertex="1">
          <mxGeometry x="710" y="-100" width="160" height="138" as="geometry" />
        </mxCell>
        <mxCell id="DMAtaqnA_2VvERT6udvz-5" value="+ Id: int&lt;div&gt;+ Direccion: string&lt;br&gt;&lt;div&gt;+ Email: string&lt;/div&gt;&lt;div&gt;+ Telefono: string&lt;/div&gt;&lt;/div&gt;" style="text;strokeColor=none;fillColor=none;align=left;verticalAlign=top;spacingLeft=4;spacingRight=4;overflow=hidden;rotatable=0;points=[[0,0.5],[1,0.5]];portConstraint=eastwest;whiteSpace=wrap;html=1;" parent="DMAtaqnA_2VvERT6udvz-4" vertex="1">
          <mxGeometry y="26" width="160" height="104" as="geometry" />
        </mxCell>
        <mxCell id="DMAtaqnA_2VvERT6udvz-6" value="" style="line;strokeWidth=1;fillColor=none;align=left;verticalAlign=middle;spacingTop=-1;spacingLeft=3;spacingRight=3;rotatable=0;labelPosition=right;points=[];portConstraint=eastwest;strokeColor=inherit;" parent="DMAtaqnA_2VvERT6udvz-4" vertex="1">
          <mxGeometry y="130" width="160" height="8" as="geometry" />
        </mxCell>
        <mxCell id="DMAtaqnA_2VvERT6udvz-17" value="" style="group" parent="1" vertex="1" connectable="0">
          <mxGeometry x="626" y="200" width="280" height="160" as="geometry" />
        </mxCell>
        <mxCell id="DMAtaqnA_2VvERT6udvz-12" value="&amp;lt;&amp;lt;Interface&amp;gt;&amp;gt;&lt;br&gt;IQueryHandler" style="swimlane;fontStyle=1;align=center;verticalAlign=top;childLayout=stackLayout;horizontal=1;startSize=60;horizontalStack=0;resizeParent=1;resizeParentMax=0;resizeLast=0;collapsible=1;marginBottom=0;whiteSpace=wrap;html=1;" parent="DMAtaqnA_2VvERT6udvz-17" vertex="1">
          <mxGeometry y="40" width="200" height="120" as="geometry" />
        </mxCell>
        <mxCell id="DMAtaqnA_2VvERT6udvz-14" value="" style="line;strokeWidth=1;fillColor=none;align=left;verticalAlign=middle;spacingTop=-1;spacingLeft=3;spacingRight=3;rotatable=0;labelPosition=right;points=[];portConstraint=eastwest;strokeColor=inherit;" parent="DMAtaqnA_2VvERT6udvz-12" vertex="1">
          <mxGeometry y="60" width="200" height="8" as="geometry" />
        </mxCell>
        <mxCell id="DMAtaqnA_2VvERT6udvz-15" value="+ Handle(TQuery, CancellationToken): TQueryResult" style="text;strokeColor=none;fillColor=none;align=left;verticalAlign=top;spacingLeft=4;spacingRight=4;overflow=hidden;rotatable=0;points=[[0,0.5],[1,0.5]];portConstraint=eastwest;whiteSpace=wrap;html=1;" parent="DMAtaqnA_2VvERT6udvz-12" vertex="1">
          <mxGeometry y="68" width="200" height="52" as="geometry" />
        </mxCell>
        <mxCell id="DMAtaqnA_2VvERT6udvz-16" value="TQuery:Class&lt;div&gt;TQueryResult:Class&lt;/div&gt;" style="outlineConnect=0;gradientColor=none;html=1;whiteSpace=wrap;fontSize=12;fontStyle=0;strokeColor=#879196;fillColor=none;verticalAlign=top;align=left;fontColor=#879196;dashed=1;spacingTop=3;" parent="DMAtaqnA_2VvERT6udvz-17" vertex="1">
          <mxGeometry x="140" width="140" height="45" as="geometry" />
        </mxCell>
        <mxCell id="DMAtaqnA_2VvERT6udvz-18" value="" style="group" parent="1" vertex="1" connectable="0">
          <mxGeometry x="555" y="1070" width="280" height="160" as="geometry" />
        </mxCell>
        <mxCell id="DMAtaqnA_2VvERT6udvz-19" value="&amp;lt;&amp;lt;Interface&amp;gt;&amp;gt;&lt;br&gt;ICommandHandler" style="swimlane;fontStyle=1;align=center;verticalAlign=top;childLayout=stackLayout;horizontal=1;startSize=60;horizontalStack=0;resizeParent=1;resizeParentMax=0;resizeLast=0;collapsible=1;marginBottom=0;whiteSpace=wrap;html=1;" parent="DMAtaqnA_2VvERT6udvz-18" vertex="1">
          <mxGeometry y="40" width="200" height="120" as="geometry" />
        </mxCell>
        <mxCell id="DMAtaqnA_2VvERT6udvz-20" value="" style="line;strokeWidth=1;fillColor=none;align=left;verticalAlign=middle;spacingTop=-1;spacingLeft=3;spacingRight=3;rotatable=0;labelPosition=right;points=[];portConstraint=eastwest;strokeColor=inherit;" parent="DMAtaqnA_2VvERT6udvz-19" vertex="1">
          <mxGeometry y="60" width="200" height="8" as="geometry" />
        </mxCell>
        <mxCell id="DMAtaqnA_2VvERT6udvz-21" value="+ Handle(TCommand): TCommandResult" style="text;strokeColor=none;fillColor=none;align=left;verticalAlign=top;spacingLeft=4;spacingRight=4;overflow=hidden;rotatable=0;points=[[0,0.5],[1,0.5]];portConstraint=eastwest;whiteSpace=wrap;html=1;" parent="DMAtaqnA_2VvERT6udvz-19" vertex="1">
          <mxGeometry y="68" width="200" height="52" as="geometry" />
        </mxCell>
        <mxCell id="DMAtaqnA_2VvERT6udvz-22" value="TCommand:Class&lt;div&gt;TCommandResult:Class&lt;/div&gt;" style="outlineConnect=0;gradientColor=none;html=1;whiteSpace=wrap;fontSize=12;fontStyle=0;strokeColor=#879196;fillColor=none;verticalAlign=top;align=left;fontColor=#879196;dashed=1;spacingTop=3;" parent="DMAtaqnA_2VvERT6udvz-18" vertex="1">
          <mxGeometry x="140" width="140" height="45" as="geometry" />
        </mxCell>
        <mxCell id="DMAtaqnA_2VvERT6udvz-34" value="" style="group;fontStyle=1" parent="1" vertex="1" connectable="0">
          <mxGeometry x="-550" y="1170" width="480" height="160" as="geometry" />
        </mxCell>
        <mxCell id="DMAtaqnA_2VvERT6udvz-35" value="&amp;lt;&amp;lt;Interface&amp;gt;&amp;gt;&lt;br&gt;ICommandDispatcher" style="swimlane;fontStyle=1;align=center;verticalAlign=top;childLayout=stackLayout;horizontal=1;startSize=60;horizontalStack=0;resizeParent=1;resizeParentMax=0;resizeLast=0;collapsible=1;marginBottom=0;whiteSpace=wrap;html=1;" parent="DMAtaqnA_2VvERT6udvz-34" vertex="1">
          <mxGeometry y="40" width="411.4285714285715" height="120" as="geometry" />
        </mxCell>
        <mxCell id="DMAtaqnA_2VvERT6udvz-36" value="" style="line;strokeWidth=1;fillColor=none;align=left;verticalAlign=middle;spacingTop=-1;spacingLeft=3;spacingRight=3;rotatable=0;labelPosition=right;points=[];portConstraint=eastwest;strokeColor=inherit;" parent="DMAtaqnA_2VvERT6udvz-35" vertex="1">
          <mxGeometry y="60" width="411.4285714285715" height="8" as="geometry" />
        </mxCell>
        <mxCell id="DMAtaqnA_2VvERT6udvz-37" value="+ Dispatch&amp;lt;TCommand,TCommandResult&amp;gt;(TCommand): TCommandResult" style="text;strokeColor=none;fillColor=none;align=left;verticalAlign=top;spacingLeft=4;spacingRight=4;overflow=hidden;rotatable=0;points=[[0,0.5],[1,0.5]];portConstraint=eastwest;whiteSpace=wrap;html=1;" parent="DMAtaqnA_2VvERT6udvz-35" vertex="1">
          <mxGeometry y="68" width="411.4285714285715" height="52" as="geometry" />
        </mxCell>
        <mxCell id="DMAtaqnA_2VvERT6udvz-38" value="TCommand:Class&lt;div&gt;TCommandResult:Class&lt;/div&gt;" style="outlineConnect=0;gradientColor=none;html=1;whiteSpace=wrap;fontSize=12;fontStyle=0;strokeColor=#879196;fillColor=none;verticalAlign=top;align=left;fontColor=#879196;dashed=1;spacingTop=3;" parent="DMAtaqnA_2VvERT6udvz-34" vertex="1">
          <mxGeometry x="240" width="240" height="45" as="geometry" />
        </mxCell>
        <mxCell id="DMAtaqnA_2VvERT6udvz-40" value="" style="group;fontStyle=1" parent="1" vertex="1" connectable="0">
          <mxGeometry x="-1290" y="320" width="480" height="160" as="geometry" />
        </mxCell>
        <mxCell id="DMAtaqnA_2VvERT6udvz-41" value="&amp;lt;&amp;lt;Interface&amp;gt;&amp;gt;&lt;br&gt;IEmpleadoReaderService" style="swimlane;fontStyle=1;align=center;verticalAlign=top;childLayout=stackLayout;horizontal=1;startSize=60;horizontalStack=0;resizeParent=1;resizeParentMax=0;resizeLast=0;collapsible=1;marginBottom=0;whiteSpace=wrap;html=1;" parent="DMAtaqnA_2VvERT6udvz-40" vertex="1">
          <mxGeometry y="40" width="410" height="120" as="geometry" />
        </mxCell>
        <mxCell id="DMAtaqnA_2VvERT6udvz-42" value="" style="line;strokeWidth=1;fillColor=none;align=left;verticalAlign=middle;spacingTop=-1;spacingLeft=3;spacingRight=3;rotatable=0;labelPosition=right;points=[];portConstraint=eastwest;strokeColor=inherit;" parent="DMAtaqnA_2VvERT6udvz-41" vertex="1">
          <mxGeometry y="60" width="410" height="8" as="geometry" />
        </mxCell>
        <mxCell id="DMAtaqnA_2VvERT6udvz-43" value="+ Get(int):InternalResponse&amp;lt;Empleado&amp;gt;" style="text;strokeColor=none;fillColor=none;align=left;verticalAlign=top;spacingLeft=4;spacingRight=4;overflow=hidden;rotatable=0;points=[[0,0.5],[1,0.5]];portConstraint=eastwest;whiteSpace=wrap;html=1;" parent="DMAtaqnA_2VvERT6udvz-41" vertex="1">
          <mxGeometry y="68" width="410" height="52" as="geometry" />
        </mxCell>
        <mxCell id="DMAtaqnA_2VvERT6udvz-172" style="edgeStyle=orthogonalEdgeStyle;rounded=0;orthogonalLoop=1;jettySize=auto;html=1;entryX=0.477;entryY=0.99;entryDx=0;entryDy=0;entryPerimeter=0;endArrow=block;endFill=0;" parent="1" source="DMAtaqnA_2VvERT6udvz-48" target="DMAtaqnA_2VvERT6udvz-63" edge="1">
          <mxGeometry relative="1" as="geometry">
            <mxPoint x="-410" y="490" as="targetPoint" />
          </mxGeometry>
        </mxCell>
        <mxCell id="DMAtaqnA_2VvERT6udvz-48" value="QueryDispatcher" style="swimlane;fontStyle=1;align=center;verticalAlign=top;childLayout=stackLayout;horizontal=1;startSize=26;horizontalStack=0;resizeParent=1;resizeParentMax=0;resizeLast=0;collapsible=1;marginBottom=0;whiteSpace=wrap;html=1;" parent="1" vertex="1">
          <mxGeometry x="-600" y="553" width="360" height="120" as="geometry" />
        </mxCell>
        <mxCell id="DMAtaqnA_2VvERT6udvz-49" value="+ _servideProvider: IServiceProvider" style="text;strokeColor=none;fillColor=none;align=left;verticalAlign=top;spacingLeft=4;spacingRight=4;overflow=hidden;rotatable=0;points=[[0,0.5],[1,0.5]];portConstraint=eastwest;whiteSpace=wrap;html=1;" parent="DMAtaqnA_2VvERT6udvz-48" vertex="1">
          <mxGeometry y="26" width="360" height="26" as="geometry" />
        </mxCell>
        <mxCell id="DMAtaqnA_2VvERT6udvz-50" value="" style="line;strokeWidth=1;fillColor=none;align=left;verticalAlign=middle;spacingTop=-1;spacingLeft=3;spacingRight=3;rotatable=0;labelPosition=right;points=[];portConstraint=eastwest;strokeColor=inherit;" parent="DMAtaqnA_2VvERT6udvz-48" vertex="1">
          <mxGeometry y="52" width="360" height="8" as="geometry" />
        </mxCell>
        <mxCell id="DMAtaqnA_2VvERT6udvz-51" value="+ Dispatch&amp;lt;TQuery,TQueryResult&amp;gt;(TQuery,CancellationToken): TQueryResult" style="text;strokeColor=none;fillColor=none;align=left;verticalAlign=top;spacingLeft=4;spacingRight=4;overflow=hidden;rotatable=0;points=[[0,0.5],[1,0.5]];portConstraint=eastwest;whiteSpace=wrap;html=1;" parent="DMAtaqnA_2VvERT6udvz-48" vertex="1">
          <mxGeometry y="60" width="360" height="60" as="geometry" />
        </mxCell>
        <mxCell id="DMAtaqnA_2VvERT6udvz-60" value="" style="group;fontStyle=1" parent="1" vertex="1" connectable="0">
          <mxGeometry x="-610" y="310" width="480" height="160" as="geometry" />
        </mxCell>
        <mxCell id="DMAtaqnA_2VvERT6udvz-61" value="&amp;lt;&amp;lt;Interface&amp;gt;&amp;gt;&lt;br&gt;IQueryDispatcher" style="swimlane;fontStyle=1;align=center;verticalAlign=top;childLayout=stackLayout;horizontal=1;startSize=60;horizontalStack=0;resizeParent=1;resizeParentMax=0;resizeLast=0;collapsible=1;marginBottom=0;whiteSpace=wrap;html=1;" parent="DMAtaqnA_2VvERT6udvz-60" vertex="1">
          <mxGeometry y="40" width="410" height="120" as="geometry" />
        </mxCell>
        <mxCell id="DMAtaqnA_2VvERT6udvz-62" value="" style="line;strokeWidth=1;fillColor=none;align=left;verticalAlign=middle;spacingTop=-1;spacingLeft=3;spacingRight=3;rotatable=0;labelPosition=right;points=[];portConstraint=eastwest;strokeColor=inherit;" parent="DMAtaqnA_2VvERT6udvz-61" vertex="1">
          <mxGeometry y="60" width="410" height="8" as="geometry" />
        </mxCell>
        <mxCell id="DMAtaqnA_2VvERT6udvz-63" value="+ Dispatch&amp;lt;TQuery,TQueryResult&amp;gt;(TQuery,CancellationToken): TQueryResult" style="text;strokeColor=none;fillColor=none;align=left;verticalAlign=top;spacingLeft=4;spacingRight=4;overflow=hidden;rotatable=0;points=[[0,0.5],[1,0.5]];portConstraint=eastwest;whiteSpace=wrap;html=1;" parent="DMAtaqnA_2VvERT6udvz-61" vertex="1">
          <mxGeometry y="68" width="410" height="52" as="geometry" />
        </mxCell>
        <mxCell id="DMAtaqnA_2VvERT6udvz-64" value="TQuery:Class&lt;div&gt;TQueryResult:Class&lt;/div&gt;" style="outlineConnect=0;gradientColor=none;html=1;whiteSpace=wrap;fontSize=12;fontStyle=0;strokeColor=#879196;fillColor=none;verticalAlign=top;align=left;fontColor=#879196;dashed=1;spacingTop=3;" parent="DMAtaqnA_2VvERT6udvz-60" vertex="1">
          <mxGeometry x="140" width="340" height="45" as="geometry" />
        </mxCell>
        <mxCell id="DMAtaqnA_2VvERT6udvz-65" value="" style="group;fontStyle=1" parent="1" vertex="1" connectable="0">
          <mxGeometry x="-1270" y="890" width="480" height="160" as="geometry" />
        </mxCell>
        <mxCell id="DMAtaqnA_2VvERT6udvz-66" value="&amp;lt;&amp;lt;Interface&amp;gt;&amp;gt;&lt;br&gt;IEmpleadoWriterService" style="swimlane;fontStyle=1;align=center;verticalAlign=top;childLayout=stackLayout;horizontal=1;startSize=60;horizontalStack=0;resizeParent=1;resizeParentMax=0;resizeLast=0;collapsible=1;marginBottom=0;whiteSpace=wrap;html=1;" parent="DMAtaqnA_2VvERT6udvz-65" vertex="1">
          <mxGeometry y="40" width="410" height="120" as="geometry" />
        </mxCell>
        <mxCell id="DMAtaqnA_2VvERT6udvz-67" value="" style="line;strokeWidth=1;fillColor=none;align=left;verticalAlign=middle;spacingTop=-1;spacingLeft=3;spacingRight=3;rotatable=0;labelPosition=right;points=[];portConstraint=eastwest;strokeColor=inherit;" parent="DMAtaqnA_2VvERT6udvz-66" vertex="1">
          <mxGeometry y="60" width="410" height="8" as="geometry" />
        </mxCell>
        <mxCell id="DMAtaqnA_2VvERT6udvz-68" value="+ Insert(Empleado)::InternalResponse&amp;lt;Empleado&amp;gt;&lt;div&gt;+ Update(Empleado)::InternalResponse&amp;lt;Empleado&amp;gt;&lt;br&gt;&lt;/div&gt;&lt;div&gt;+ Delete(Empleado)::InternalResponse&amp;lt;Empleado&amp;gt;&lt;br&gt;&lt;/div&gt;" style="text;strokeColor=none;fillColor=none;align=left;verticalAlign=top;spacingLeft=4;spacingRight=4;overflow=hidden;rotatable=0;points=[[0,0.5],[1,0.5]];portConstraint=eastwest;whiteSpace=wrap;html=1;" parent="DMAtaqnA_2VvERT6udvz-66" vertex="1">
          <mxGeometry y="68" width="410" height="52" as="geometry" />
        </mxCell>
        <mxCell id="DMAtaqnA_2VvERT6udvz-69" value="EmpleadoReaderService" style="swimlane;fontStyle=1;align=center;verticalAlign=top;childLayout=stackLayout;horizontal=1;startSize=26;horizontalStack=0;resizeParent=1;resizeParentMax=0;resizeLast=0;collapsible=1;marginBottom=0;whiteSpace=wrap;html=1;" parent="1" vertex="1">
          <mxGeometry x="-1290" y="556" width="410" height="114" as="geometry" />
        </mxCell>
        <mxCell id="DMAtaqnA_2VvERT6udvz-70" value="+ _iogger: ILogger&amp;lt;EmpleadoReaderService&amp;gt;&lt;div&gt;+ _queryDispatcher: IQueryDispatcher&lt;/div&gt;" style="text;strokeColor=none;fillColor=none;align=left;verticalAlign=top;spacingLeft=4;spacingRight=4;overflow=hidden;rotatable=0;points=[[0,0.5],[1,0.5]];portConstraint=eastwest;whiteSpace=wrap;html=1;" parent="DMAtaqnA_2VvERT6udvz-69" vertex="1">
          <mxGeometry y="26" width="410" height="54" as="geometry" />
        </mxCell>
        <mxCell id="DMAtaqnA_2VvERT6udvz-71" value="" style="line;strokeWidth=1;fillColor=none;align=left;verticalAlign=middle;spacingTop=-1;spacingLeft=3;spacingRight=3;rotatable=0;labelPosition=right;points=[];portConstraint=eastwest;strokeColor=inherit;" parent="DMAtaqnA_2VvERT6udvz-69" vertex="1">
          <mxGeometry y="80" width="410" height="8" as="geometry" />
        </mxCell>
        <mxCell id="DMAtaqnA_2VvERT6udvz-72" value="+ Get(int):InternalResponse&amp;lt;Empleado&amp;gt;" style="text;strokeColor=none;fillColor=none;align=left;verticalAlign=top;spacingLeft=4;spacingRight=4;overflow=hidden;rotatable=0;points=[[0,0.5],[1,0.5]];portConstraint=eastwest;whiteSpace=wrap;html=1;" parent="DMAtaqnA_2VvERT6udvz-69" vertex="1">
          <mxGeometry y="88" width="410" height="26" as="geometry" />
        </mxCell>
        <mxCell id="DMAtaqnA_2VvERT6udvz-73" value="EmpleadoWriterService" style="swimlane;fontStyle=1;align=center;verticalAlign=top;childLayout=stackLayout;horizontal=1;startSize=26;horizontalStack=0;resizeParent=1;resizeParentMax=0;resizeLast=0;collapsible=1;marginBottom=0;whiteSpace=wrap;html=1;" parent="1" vertex="1">
          <mxGeometry x="-1275" y="1110" width="410" height="150" as="geometry" />
        </mxCell>
        <mxCell id="DMAtaqnA_2VvERT6udvz-74" value="+ _iogger: ILogger&amp;lt;EmpleadoWriterService&amp;gt;&lt;div&gt;+ _commandDispatcher: ICommandDispatcher&lt;/div&gt;" style="text;strokeColor=none;fillColor=none;align=left;verticalAlign=top;spacingLeft=4;spacingRight=4;overflow=hidden;rotatable=0;points=[[0,0.5],[1,0.5]];portConstraint=eastwest;whiteSpace=wrap;html=1;" parent="DMAtaqnA_2VvERT6udvz-73" vertex="1">
          <mxGeometry y="26" width="410" height="54" as="geometry" />
        </mxCell>
        <mxCell id="DMAtaqnA_2VvERT6udvz-75" value="" style="line;strokeWidth=1;fillColor=none;align=left;verticalAlign=middle;spacingTop=-1;spacingLeft=3;spacingRight=3;rotatable=0;labelPosition=right;points=[];portConstraint=eastwest;strokeColor=inherit;" parent="DMAtaqnA_2VvERT6udvz-73" vertex="1">
          <mxGeometry y="80" width="410" height="8" as="geometry" />
        </mxCell>
        <mxCell id="DMAtaqnA_2VvERT6udvz-76" value="+ Inser(Empleado)::InternalResponse&amp;lt;Empleado&amp;gt;&lt;div&gt;+ Update(Empleado)::InternalResponse&amp;lt;Empleado&amp;gt;&lt;br&gt;&lt;/div&gt;&lt;div&gt;+ Delete(Empleado)::InternalResponse&amp;lt;Empleado&amp;gt;&lt;/div&gt;" style="text;strokeColor=none;fillColor=none;align=left;verticalAlign=top;spacingLeft=4;spacingRight=4;overflow=hidden;rotatable=0;points=[[0,0.5],[1,0.5]];portConstraint=eastwest;whiteSpace=wrap;html=1;" parent="DMAtaqnA_2VvERT6udvz-73" vertex="1">
          <mxGeometry y="88" width="410" height="62" as="geometry" />
        </mxCell>
        <mxCell id="DMAtaqnA_2VvERT6udvz-173" style="edgeStyle=orthogonalEdgeStyle;rounded=0;orthogonalLoop=1;jettySize=auto;html=1;entryX=0;entryY=0.5;entryDx=0;entryDy=0;" parent="1" source="DMAtaqnA_2VvERT6udvz-77" target="DMAtaqnA_2VvERT6udvz-66" edge="1">
          <mxGeometry relative="1" as="geometry" />
        </mxCell>
        <mxCell id="DMAtaqnA_2VvERT6udvz-177" style="edgeStyle=orthogonalEdgeStyle;rounded=0;orthogonalLoop=1;jettySize=auto;html=1;entryX=0;entryY=0.5;entryDx=0;entryDy=0;" parent="1" source="DMAtaqnA_2VvERT6udvz-77" target="DMAtaqnA_2VvERT6udvz-5" edge="1">
          <mxGeometry relative="1" as="geometry" />
        </mxCell>
        <mxCell id="DMAtaqnA_2VvERT6udvz-77" value="EmpleadoController" style="swimlane;fontStyle=1;align=center;verticalAlign=top;childLayout=stackLayout;horizontal=1;startSize=26;horizontalStack=0;resizeParent=1;resizeParentMax=0;resizeLast=0;collapsible=1;marginBottom=0;whiteSpace=wrap;html=1;" parent="1" vertex="1">
          <mxGeometry x="-2080" y="740" width="410" height="150" as="geometry" />
        </mxCell>
        <mxCell id="DMAtaqnA_2VvERT6udvz-78" value="+ _iogger: ILogger&amp;lt;EmpleadoController&amp;gt;&lt;div&gt;+ _commandDispatcher: ICommandDispatcher&lt;/div&gt;" style="text;strokeColor=none;fillColor=none;align=left;verticalAlign=top;spacingLeft=4;spacingRight=4;overflow=hidden;rotatable=0;points=[[0,0.5],[1,0.5]];portConstraint=eastwest;whiteSpace=wrap;html=1;" parent="DMAtaqnA_2VvERT6udvz-77" vertex="1">
          <mxGeometry y="26" width="410" height="54" as="geometry" />
        </mxCell>
        <mxCell id="DMAtaqnA_2VvERT6udvz-79" value="" style="line;strokeWidth=1;fillColor=none;align=left;verticalAlign=middle;spacingTop=-1;spacingLeft=3;spacingRight=3;rotatable=0;labelPosition=right;points=[];portConstraint=eastwest;strokeColor=inherit;" parent="DMAtaqnA_2VvERT6udvz-77" vertex="1">
          <mxGeometry y="80" width="410" height="8" as="geometry" />
        </mxCell>
        <mxCell id="DMAtaqnA_2VvERT6udvz-80" value="&lt;div&gt;+ Get(int):Task&amp;lt;IActionResult&amp;gt;&lt;/div&gt;+ Inser(Empleado)::Task&amp;lt;IActionResult&amp;gt;&lt;div&gt;+ Update(Empleado)::&lt;span style=&quot;background-color: initial;&quot;&gt;Task&amp;lt;IActionResult&amp;gt;&lt;/span&gt;&lt;br&gt;&lt;/div&gt;&lt;div&gt;+ Delete(Empleado)::&lt;span style=&quot;background-color: initial;&quot;&gt;Task&amp;lt;IActionResult&amp;gt;&lt;/span&gt;&lt;/div&gt;" style="text;strokeColor=none;fillColor=none;align=left;verticalAlign=top;spacingLeft=4;spacingRight=4;overflow=hidden;rotatable=0;points=[[0,0.5],[1,0.5]];portConstraint=eastwest;whiteSpace=wrap;html=1;" parent="DMAtaqnA_2VvERT6udvz-77" vertex="1">
          <mxGeometry y="88" width="410" height="62" as="geometry" />
        </mxCell>
        <mxCell id="DMAtaqnA_2VvERT6udvz-167" style="edgeStyle=orthogonalEdgeStyle;rounded=0;orthogonalLoop=1;jettySize=auto;html=1;entryX=0;entryY=0.5;entryDx=0;entryDy=0;" parent="1" source="DMAtaqnA_2VvERT6udvz-81" target="DMAtaqnA_2VvERT6udvz-19" edge="1">
          <mxGeometry relative="1" as="geometry" />
        </mxCell>
        <mxCell id="DMAtaqnA_2VvERT6udvz-81" value="CommandDispatcher" style="swimlane;fontStyle=1;align=center;verticalAlign=top;childLayout=stackLayout;horizontal=1;startSize=26;horizontalStack=0;resizeParent=1;resizeParentMax=0;resizeLast=0;collapsible=1;marginBottom=0;whiteSpace=wrap;html=1;" parent="1" vertex="1">
          <mxGeometry x="-540" y="1410" width="360" height="120" as="geometry" />
        </mxCell>
        <mxCell id="DMAtaqnA_2VvERT6udvz-82" value="+ _servideProvider: IServiceProvider" style="text;strokeColor=none;fillColor=none;align=left;verticalAlign=top;spacingLeft=4;spacingRight=4;overflow=hidden;rotatable=0;points=[[0,0.5],[1,0.5]];portConstraint=eastwest;whiteSpace=wrap;html=1;" parent="DMAtaqnA_2VvERT6udvz-81" vertex="1">
          <mxGeometry y="26" width="360" height="26" as="geometry" />
        </mxCell>
        <mxCell id="DMAtaqnA_2VvERT6udvz-83" value="" style="line;strokeWidth=1;fillColor=none;align=left;verticalAlign=middle;spacingTop=-1;spacingLeft=3;spacingRight=3;rotatable=0;labelPosition=right;points=[];portConstraint=eastwest;strokeColor=inherit;" parent="DMAtaqnA_2VvERT6udvz-81" vertex="1">
          <mxGeometry y="52" width="360" height="8" as="geometry" />
        </mxCell>
        <mxCell id="DMAtaqnA_2VvERT6udvz-84" value="+ Dispatch&amp;lt;TCommand,TCommandResult&amp;gt;(TCommand): TCommandResult" style="text;strokeColor=none;fillColor=none;align=left;verticalAlign=top;spacingLeft=4;spacingRight=4;overflow=hidden;rotatable=0;points=[[0,0.5],[1,0.5]];portConstraint=eastwest;whiteSpace=wrap;html=1;" parent="DMAtaqnA_2VvERT6udvz-81" vertex="1">
          <mxGeometry y="60" width="360" height="60" as="geometry" />
        </mxCell>
        <mxCell id="DMAtaqnA_2VvERT6udvz-88" value="GetEmpleadoQuery" style="swimlane;fontStyle=1;align=center;verticalAlign=top;childLayout=stackLayout;horizontal=1;startSize=26;horizontalStack=0;resizeParent=1;resizeParentMax=0;resizeLast=0;collapsible=1;marginBottom=0;whiteSpace=wrap;html=1;" parent="1" vertex="1">
          <mxGeometry x="170" y="270" width="160" height="60" as="geometry" />
        </mxCell>
        <mxCell id="DMAtaqnA_2VvERT6udvz-89" value="+ Id: int" style="text;strokeColor=none;fillColor=none;align=left;verticalAlign=top;spacingLeft=4;spacingRight=4;overflow=hidden;rotatable=0;points=[[0,0.5],[1,0.5]];portConstraint=eastwest;whiteSpace=wrap;html=1;" parent="DMAtaqnA_2VvERT6udvz-88" vertex="1">
          <mxGeometry y="26" width="160" height="26" as="geometry" />
        </mxCell>
        <mxCell id="DMAtaqnA_2VvERT6udvz-90" value="" style="line;strokeWidth=1;fillColor=none;align=left;verticalAlign=middle;spacingTop=-1;spacingLeft=3;spacingRight=3;rotatable=0;labelPosition=right;points=[];portConstraint=eastwest;strokeColor=inherit;" parent="DMAtaqnA_2VvERT6udvz-88" vertex="1">
          <mxGeometry y="52" width="160" height="8" as="geometry" />
        </mxCell>
        <mxCell id="DMAtaqnA_2VvERT6udvz-92" value="InsertEmpleadoCommand" style="swimlane;fontStyle=1;align=center;verticalAlign=top;childLayout=stackLayout;horizontal=1;startSize=26;horizontalStack=0;resizeParent=1;resizeParentMax=0;resizeLast=0;collapsible=1;marginBottom=0;whiteSpace=wrap;html=1;" parent="1" vertex="1">
          <mxGeometry x="1260" y="1270" width="160" height="60" as="geometry" />
        </mxCell>
        <mxCell id="DMAtaqnA_2VvERT6udvz-93" value="+ Empleado: Empleado" style="text;strokeColor=none;fillColor=none;align=left;verticalAlign=top;spacingLeft=4;spacingRight=4;overflow=hidden;rotatable=0;points=[[0,0.5],[1,0.5]];portConstraint=eastwest;whiteSpace=wrap;html=1;" parent="DMAtaqnA_2VvERT6udvz-92" vertex="1">
          <mxGeometry y="26" width="160" height="26" as="geometry" />
        </mxCell>
        <mxCell id="DMAtaqnA_2VvERT6udvz-94" value="" style="line;strokeWidth=1;fillColor=none;align=left;verticalAlign=middle;spacingTop=-1;spacingLeft=3;spacingRight=3;rotatable=0;labelPosition=right;points=[];portConstraint=eastwest;strokeColor=inherit;" parent="DMAtaqnA_2VvERT6udvz-92" vertex="1">
          <mxGeometry y="52" width="160" height="8" as="geometry" />
        </mxCell>
        <mxCell id="DMAtaqnA_2VvERT6udvz-95" value="UpdateEmpleadoCommand" style="swimlane;fontStyle=1;align=center;verticalAlign=top;childLayout=stackLayout;horizontal=1;startSize=26;horizontalStack=0;resizeParent=1;resizeParentMax=0;resizeLast=0;collapsible=1;marginBottom=0;whiteSpace=wrap;html=1;" parent="1" vertex="1">
          <mxGeometry x="1360" y="1415" width="160" height="60" as="geometry" />
        </mxCell>
        <mxCell id="DMAtaqnA_2VvERT6udvz-96" value="+ Empleado: Empleado" style="text;strokeColor=none;fillColor=none;align=left;verticalAlign=top;spacingLeft=4;spacingRight=4;overflow=hidden;rotatable=0;points=[[0,0.5],[1,0.5]];portConstraint=eastwest;whiteSpace=wrap;html=1;" parent="DMAtaqnA_2VvERT6udvz-95" vertex="1">
          <mxGeometry y="26" width="160" height="26" as="geometry" />
        </mxCell>
        <mxCell id="DMAtaqnA_2VvERT6udvz-97" value="" style="line;strokeWidth=1;fillColor=none;align=left;verticalAlign=middle;spacingTop=-1;spacingLeft=3;spacingRight=3;rotatable=0;labelPosition=right;points=[];portConstraint=eastwest;strokeColor=inherit;" parent="DMAtaqnA_2VvERT6udvz-95" vertex="1">
          <mxGeometry y="52" width="160" height="8" as="geometry" />
        </mxCell>
        <mxCell id="DMAtaqnA_2VvERT6udvz-98" value="DeleteEmpleadoCommand" style="swimlane;fontStyle=1;align=center;verticalAlign=top;childLayout=stackLayout;horizontal=1;startSize=26;horizontalStack=0;resizeParent=1;resizeParentMax=0;resizeLast=0;collapsible=1;marginBottom=0;whiteSpace=wrap;html=1;" parent="1" vertex="1">
          <mxGeometry x="1260" y="1590" width="160" height="60" as="geometry" />
        </mxCell>
        <mxCell id="DMAtaqnA_2VvERT6udvz-99" value="+ Id: int" style="text;strokeColor=none;fillColor=none;align=left;verticalAlign=top;spacingLeft=4;spacingRight=4;overflow=hidden;rotatable=0;points=[[0,0.5],[1,0.5]];portConstraint=eastwest;whiteSpace=wrap;html=1;" parent="DMAtaqnA_2VvERT6udvz-98" vertex="1">
          <mxGeometry y="26" width="160" height="26" as="geometry" />
        </mxCell>
        <mxCell id="DMAtaqnA_2VvERT6udvz-100" value="" style="line;strokeWidth=1;fillColor=none;align=left;verticalAlign=middle;spacingTop=-1;spacingLeft=3;spacingRight=3;rotatable=0;labelPosition=right;points=[];portConstraint=eastwest;strokeColor=inherit;" parent="DMAtaqnA_2VvERT6udvz-98" vertex="1">
          <mxGeometry y="52" width="160" height="8" as="geometry" />
        </mxCell>
        <mxCell id="DMAtaqnA_2VvERT6udvz-134" style="edgeStyle=orthogonalEdgeStyle;rounded=0;orthogonalLoop=1;jettySize=auto;html=1;entryX=0.5;entryY=1;entryDx=0;entryDy=0;" parent="1" source="DMAtaqnA_2VvERT6udvz-104" target="DMAtaqnA_2VvERT6udvz-88" edge="1">
          <mxGeometry relative="1" as="geometry" />
        </mxCell>
        <mxCell id="DMAtaqnA_2VvERT6udvz-104" value="&lt;b&gt;IQueryHandler&amp;lt;GetEmpleadoQuery,InternalResponse&amp;lt;Empleado&lt;span style=&quot;background-color: initial;&quot;&gt;&amp;gt;&amp;gt;&lt;/span&gt;&lt;/b&gt;" style="html=1;whiteSpace=wrap;" parent="1" vertex="1">
          <mxGeometry x="527" y="450" width="390" height="50" as="geometry" />
        </mxCell>
        <mxCell id="DMAtaqnA_2VvERT6udvz-128" style="edgeStyle=orthogonalEdgeStyle;rounded=0;orthogonalLoop=1;jettySize=auto;html=1;" parent="1" source="DMAtaqnA_2VvERT6udvz-108" target="DMAtaqnA_2VvERT6udvz-115" edge="1">
          <mxGeometry relative="1" as="geometry" />
        </mxCell>
        <mxCell id="DMAtaqnA_2VvERT6udvz-108" value="EmpleadoQueryHandler" style="swimlane;fontStyle=1;align=center;verticalAlign=top;childLayout=stackLayout;horizontal=1;startSize=26;horizontalStack=0;resizeParent=1;resizeParentMax=0;resizeLast=0;collapsible=1;marginBottom=0;whiteSpace=wrap;html=1;" parent="1" vertex="1">
          <mxGeometry x="440" y="770" width="510" height="148" as="geometry" />
        </mxCell>
        <mxCell id="DMAtaqnA_2VvERT6udvz-109" value="+ _mainDbContext: MaonDbContext&lt;div&gt;+ _logger: Ilogger&amp;lt;EmpleadoQueryHandler&amp;gt;&lt;/div&gt;" style="text;strokeColor=none;fillColor=none;align=left;verticalAlign=top;spacingLeft=4;spacingRight=4;overflow=hidden;rotatable=0;points=[[0,0.5],[1,0.5]];portConstraint=eastwest;whiteSpace=wrap;html=1;" parent="DMAtaqnA_2VvERT6udvz-108" vertex="1">
          <mxGeometry y="26" width="510" height="54" as="geometry" />
        </mxCell>
        <mxCell id="DMAtaqnA_2VvERT6udvz-110" value="" style="line;strokeWidth=1;fillColor=none;align=left;verticalAlign=middle;spacingTop=-1;spacingLeft=3;spacingRight=3;rotatable=0;labelPosition=right;points=[];portConstraint=eastwest;strokeColor=inherit;" parent="DMAtaqnA_2VvERT6udvz-108" vertex="1">
          <mxGeometry y="80" width="510" height="8" as="geometry" />
        </mxCell>
        <mxCell id="DMAtaqnA_2VvERT6udvz-111" value="+ Handle(GetEmpleadoQuery,CancellationToken): InternalResponse&amp;lt;Empleado&amp;gt;" style="text;strokeColor=none;fillColor=none;align=left;verticalAlign=top;spacingLeft=4;spacingRight=4;overflow=hidden;rotatable=0;points=[[0,0.5],[1,0.5]];portConstraint=eastwest;whiteSpace=wrap;html=1;" parent="DMAtaqnA_2VvERT6udvz-108" vertex="1">
          <mxGeometry y="88" width="510" height="60" as="geometry" />
        </mxCell>
        <mxCell id="DMAtaqnA_2VvERT6udvz-133" style="edgeStyle=orthogonalEdgeStyle;rounded=0;orthogonalLoop=1;jettySize=auto;html=1;entryX=1;entryY=0.5;entryDx=0;entryDy=0;" parent="1" source="DMAtaqnA_2VvERT6udvz-112" target="DMAtaqnA_2VvERT6udvz-5" edge="1">
          <mxGeometry relative="1" as="geometry" />
        </mxCell>
        <mxCell id="DMAtaqnA_2VvERT6udvz-112" value="MainDbContext" style="swimlane;fontStyle=1;align=center;verticalAlign=top;childLayout=stackLayout;horizontal=1;startSize=26;horizontalStack=0;resizeParent=1;resizeParentMax=0;resizeLast=0;collapsible=1;marginBottom=0;whiteSpace=wrap;html=1;" parent="1" vertex="1">
          <mxGeometry x="1170" y="832" width="360" height="118" as="geometry" />
        </mxCell>
        <mxCell id="DMAtaqnA_2VvERT6udvz-113" value="+ Empleados: &amp;lt;DbSet&amp;gt;" style="text;strokeColor=none;fillColor=none;align=left;verticalAlign=top;spacingLeft=4;spacingRight=4;overflow=hidden;rotatable=0;points=[[0,0.5],[1,0.5]];portConstraint=eastwest;whiteSpace=wrap;html=1;" parent="DMAtaqnA_2VvERT6udvz-112" vertex="1">
          <mxGeometry y="26" width="360" height="24" as="geometry" />
        </mxCell>
        <mxCell id="DMAtaqnA_2VvERT6udvz-114" value="" style="line;strokeWidth=1;fillColor=none;align=left;verticalAlign=middle;spacingTop=-1;spacingLeft=3;spacingRight=3;rotatable=0;labelPosition=right;points=[];portConstraint=eastwest;strokeColor=inherit;" parent="DMAtaqnA_2VvERT6udvz-112" vertex="1">
          <mxGeometry y="50" width="360" height="8" as="geometry" />
        </mxCell>
        <mxCell id="DMAtaqnA_2VvERT6udvz-115" value="+ Dispatch&amp;lt;TQuery,TQueryResult&amp;gt;(TQuery,CancellationToken): TQueryResult" style="text;strokeColor=none;fillColor=none;align=left;verticalAlign=top;spacingLeft=4;spacingRight=4;overflow=hidden;rotatable=0;points=[[0,0.5],[1,0.5]];portConstraint=eastwest;whiteSpace=wrap;html=1;" parent="DMAtaqnA_2VvERT6udvz-112" vertex="1">
          <mxGeometry y="58" width="360" height="60" as="geometry" />
        </mxCell>
        <mxCell id="DMAtaqnA_2VvERT6udvz-121" value="" style="group" parent="1" vertex="1" connectable="0">
          <mxGeometry x="528" y="533" width="540" height="160" as="geometry" />
        </mxCell>
        <mxCell id="DMAtaqnA_2VvERT6udvz-122" value="&amp;lt;&amp;lt;Interface&amp;gt;&amp;gt;&lt;br&gt;IEmpleadoQueryHandler" style="swimlane;fontStyle=1;align=center;verticalAlign=top;childLayout=stackLayout;horizontal=1;startSize=60;horizontalStack=0;resizeParent=1;resizeParentMax=0;resizeLast=0;collapsible=1;marginBottom=0;whiteSpace=wrap;html=1;" parent="DMAtaqnA_2VvERT6udvz-121" vertex="1">
          <mxGeometry y="40" width="385.7142857142858" height="120" as="geometry" />
        </mxCell>
        <mxCell id="DMAtaqnA_2VvERT6udvz-123" value="" style="line;strokeWidth=1;fillColor=none;align=left;verticalAlign=middle;spacingTop=-1;spacingLeft=3;spacingRight=3;rotatable=0;labelPosition=right;points=[];portConstraint=eastwest;strokeColor=inherit;" parent="DMAtaqnA_2VvERT6udvz-122" vertex="1">
          <mxGeometry y="60" width="385.7142857142858" height="8" as="geometry" />
        </mxCell>
        <mxCell id="DMAtaqnA_2VvERT6udvz-124" value="+ Handle(GetEmpleadoQuery,CancellationToken): InternalResponse&amp;lt;Empleado&amp;gt;" style="text;strokeColor=none;fillColor=none;align=left;verticalAlign=top;spacingLeft=4;spacingRight=4;overflow=hidden;rotatable=0;points=[[0,0.5],[1,0.5]];portConstraint=eastwest;whiteSpace=wrap;html=1;" parent="DMAtaqnA_2VvERT6udvz-122" vertex="1">
          <mxGeometry y="68" width="385.7142857142858" height="52" as="geometry" />
        </mxCell>
        <mxCell id="DMAtaqnA_2VvERT6udvz-129" style="edgeStyle=orthogonalEdgeStyle;rounded=0;orthogonalLoop=1;jettySize=auto;html=1;entryX=0.433;entryY=1.01;entryDx=0;entryDy=0;entryPerimeter=0;endArrow=block;endFill=0;" parent="1" source="DMAtaqnA_2VvERT6udvz-108" target="DMAtaqnA_2VvERT6udvz-124" edge="1">
          <mxGeometry relative="1" as="geometry" />
        </mxCell>
        <mxCell id="DMAtaqnA_2VvERT6udvz-130" style="edgeStyle=orthogonalEdgeStyle;rounded=0;orthogonalLoop=1;jettySize=auto;html=1;entryX=0.5;entryY=1;entryDx=0;entryDy=0;endArrow=block;endFill=0;" parent="1" source="DMAtaqnA_2VvERT6udvz-122" target="DMAtaqnA_2VvERT6udvz-104" edge="1">
          <mxGeometry relative="1" as="geometry" />
        </mxCell>
        <mxCell id="DMAtaqnA_2VvERT6udvz-132" style="edgeStyle=orthogonalEdgeStyle;rounded=0;orthogonalLoop=1;jettySize=auto;html=1;entryX=0.477;entryY=0.996;entryDx=0;entryDy=0;entryPerimeter=0;endArrow=block;endFill=0;" parent="1" source="DMAtaqnA_2VvERT6udvz-104" target="DMAtaqnA_2VvERT6udvz-15" edge="1">
          <mxGeometry relative="1" as="geometry" />
        </mxCell>
        <mxCell id="DMAtaqnA_2VvERT6udvz-150" style="edgeStyle=orthogonalEdgeStyle;rounded=0;orthogonalLoop=1;jettySize=auto;html=1;entryX=0.5;entryY=1;entryDx=0;entryDy=0;" parent="1" source="DMAtaqnA_2VvERT6udvz-137" target="DMAtaqnA_2VvERT6udvz-92" edge="1">
          <mxGeometry relative="1" as="geometry" />
        </mxCell>
        <mxCell id="DMAtaqnA_2VvERT6udvz-137" value="&lt;b&gt;ICommandHandler&amp;lt;InsertEmpleadoCommand,InternalResponse&amp;lt;Empleado&lt;span style=&quot;background-color: initial;&quot;&gt;&amp;gt;&amp;gt;&lt;/span&gt;&lt;/b&gt;" style="html=1;whiteSpace=wrap;" parent="1" vertex="1">
          <mxGeometry x="420" y="1271" width="460" height="50" as="geometry" />
        </mxCell>
        <mxCell id="DMAtaqnA_2VvERT6udvz-151" style="edgeStyle=orthogonalEdgeStyle;rounded=0;orthogonalLoop=1;jettySize=auto;html=1;entryX=0.5;entryY=0;entryDx=0;entryDy=0;" parent="1" source="DMAtaqnA_2VvERT6udvz-140" target="DMAtaqnA_2VvERT6udvz-95" edge="1">
          <mxGeometry relative="1" as="geometry" />
        </mxCell>
        <mxCell id="DMAtaqnA_2VvERT6udvz-140" value="&lt;b&gt;ICommandHandler&amp;lt;Command,InternalResponse&amp;lt;Empleado&lt;span style=&quot;background-color: initial;&quot;&gt;&amp;gt;&amp;gt;&lt;/span&gt;&lt;/b&gt;" style="html=1;whiteSpace=wrap;" parent="1" vertex="1">
          <mxGeometry x="420" y="1341" width="460" height="50" as="geometry" />
        </mxCell>
        <mxCell id="DMAtaqnA_2VvERT6udvz-152" style="edgeStyle=orthogonalEdgeStyle;rounded=0;orthogonalLoop=1;jettySize=auto;html=1;entryX=0.5;entryY=0;entryDx=0;entryDy=0;" parent="1" source="DMAtaqnA_2VvERT6udvz-141" target="DMAtaqnA_2VvERT6udvz-98" edge="1">
          <mxGeometry relative="1" as="geometry" />
        </mxCell>
        <mxCell id="DMAtaqnA_2VvERT6udvz-141" value="&lt;b&gt;ICommandHandler&amp;lt;InsertEmpleadoCommand,InternalResponse&amp;lt;object&lt;span style=&quot;background-color: initial;&quot;&gt;&amp;gt;&amp;gt;&lt;/span&gt;&lt;/b&gt;" style="html=1;whiteSpace=wrap;" parent="1" vertex="1">
          <mxGeometry x="420" y="1421" width="460" height="50" as="geometry" />
        </mxCell>
        <mxCell id="DMAtaqnA_2VvERT6udvz-158" style="edgeStyle=orthogonalEdgeStyle;rounded=0;orthogonalLoop=1;jettySize=auto;html=1;" parent="1" source="DMAtaqnA_2VvERT6udvz-142" target="DMAtaqnA_2VvERT6udvz-5" edge="1">
          <mxGeometry relative="1" as="geometry">
            <Array as="points">
              <mxPoint x="1850" y="1734" />
              <mxPoint x="1850" y="-22" />
            </Array>
          </mxGeometry>
        </mxCell>
        <mxCell id="DMAtaqnA_2VvERT6udvz-165" style="edgeStyle=orthogonalEdgeStyle;rounded=0;orthogonalLoop=1;jettySize=auto;html=1;endArrow=block;endFill=0;" parent="1" source="DMAtaqnA_2VvERT6udvz-142" edge="1">
          <mxGeometry relative="1" as="geometry">
            <mxPoint x="665" y="1640" as="targetPoint" />
          </mxGeometry>
        </mxCell>
        <mxCell id="DMAtaqnA_2VvERT6udvz-142" value="EmpleadoCommandHandler" style="swimlane;fontStyle=1;align=center;verticalAlign=top;childLayout=stackLayout;horizontal=1;startSize=26;horizontalStack=0;resizeParent=1;resizeParentMax=0;resizeLast=0;collapsible=1;marginBottom=0;whiteSpace=wrap;html=1;" parent="1" vertex="1">
          <mxGeometry x="410" y="1660" width="510" height="148" as="geometry" />
        </mxCell>
        <mxCell id="DMAtaqnA_2VvERT6udvz-143" value="+ _mainDbContext: MaonDbContext&lt;div&gt;+ _logger: Ilogger&amp;lt;EmpleadoQueryHandler&amp;gt;&lt;/div&gt;" style="text;strokeColor=none;fillColor=none;align=left;verticalAlign=top;spacingLeft=4;spacingRight=4;overflow=hidden;rotatable=0;points=[[0,0.5],[1,0.5]];portConstraint=eastwest;whiteSpace=wrap;html=1;" parent="DMAtaqnA_2VvERT6udvz-142" vertex="1">
          <mxGeometry y="26" width="510" height="54" as="geometry" />
        </mxCell>
        <mxCell id="DMAtaqnA_2VvERT6udvz-144" value="" style="line;strokeWidth=1;fillColor=none;align=left;verticalAlign=middle;spacingTop=-1;spacingLeft=3;spacingRight=3;rotatable=0;labelPosition=right;points=[];portConstraint=eastwest;strokeColor=inherit;" parent="DMAtaqnA_2VvERT6udvz-142" vertex="1">
          <mxGeometry y="80" width="510" height="8" as="geometry" />
        </mxCell>
        <mxCell id="DMAtaqnA_2VvERT6udvz-145" value="+ Handle(InsertEmpleadoCommand): InternalResponse&amp;lt;Empleado&amp;gt;&lt;div&gt;+ Handle(InsertEmpleadoCommand): InternalResponse&amp;lt;Empleado&amp;gt;&lt;br&gt;&lt;/div&gt;&lt;div&gt;+ Handle(InsertEmpleadoCommand): InternalResponse&amp;lt;Object&amp;gt;&lt;br&gt;&lt;/div&gt;" style="text;strokeColor=none;fillColor=none;align=left;verticalAlign=top;spacingLeft=4;spacingRight=4;overflow=hidden;rotatable=0;points=[[0,0.5],[1,0.5]];portConstraint=eastwest;whiteSpace=wrap;html=1;" parent="DMAtaqnA_2VvERT6udvz-142" vertex="1">
          <mxGeometry y="88" width="510" height="60" as="geometry" />
        </mxCell>
        <mxCell id="DMAtaqnA_2VvERT6udvz-149" style="edgeStyle=orthogonalEdgeStyle;rounded=0;orthogonalLoop=1;jettySize=auto;html=1;entryX=0.529;entryY=1.005;entryDx=0;entryDy=0;entryPerimeter=0;endArrow=block;endFill=0;" parent="1" source="DMAtaqnA_2VvERT6udvz-147" target="DMAtaqnA_2VvERT6udvz-21" edge="1">
          <mxGeometry relative="1" as="geometry">
            <mxPoint x="680" y="1250" as="targetPoint" />
          </mxGeometry>
        </mxCell>
        <mxCell id="DMAtaqnA_2VvERT6udvz-147" value="" style="swimlane;startSize=0;" parent="1" vertex="1">
          <mxGeometry x="305" y="1251" width="710" height="240" as="geometry">
            <mxRectangle x="310" y="1310" width="50" height="40" as="alternateBounds" />
          </mxGeometry>
        </mxCell>
        <mxCell id="DMAtaqnA_2VvERT6udvz-159" value="" style="group" parent="1" vertex="1" connectable="0">
          <mxGeometry x="459" y="1475" width="540" height="160" as="geometry" />
        </mxCell>
        <mxCell id="DMAtaqnA_2VvERT6udvz-160" value="&amp;lt;&amp;lt;Interface&amp;gt;&amp;gt;&lt;br&gt;IEmpleadoCommandHandler" style="swimlane;fontStyle=1;align=center;verticalAlign=top;childLayout=stackLayout;horizontal=1;startSize=60;horizontalStack=0;resizeParent=1;resizeParentMax=0;resizeLast=0;collapsible=1;marginBottom=0;whiteSpace=wrap;html=1;" parent="DMAtaqnA_2VvERT6udvz-159" vertex="1">
          <mxGeometry y="40" width="390" height="120" as="geometry" />
        </mxCell>
        <mxCell id="DMAtaqnA_2VvERT6udvz-161" value="" style="line;strokeWidth=1;fillColor=none;align=left;verticalAlign=middle;spacingTop=-1;spacingLeft=3;spacingRight=3;rotatable=0;labelPosition=right;points=[];portConstraint=eastwest;strokeColor=inherit;" parent="DMAtaqnA_2VvERT6udvz-160" vertex="1">
          <mxGeometry y="60" width="390" height="8" as="geometry" />
        </mxCell>
        <mxCell id="DMAtaqnA_2VvERT6udvz-162" value="+ Handle(InsertEmpleadoCommand): InternalResponse&amp;lt;Empleado&amp;gt;&lt;div&gt;+ Handle(InsertEmpleadoCommand): InternalResponse&amp;lt;Empleado&amp;gt;&lt;br&gt;&lt;/div&gt;&lt;div&gt;+ Handle(InsertEmpleadoCommand): InternalResponse&amp;lt;Object&amp;gt;&lt;/div&gt;" style="text;strokeColor=none;fillColor=none;align=left;verticalAlign=top;spacingLeft=4;spacingRight=4;overflow=hidden;rotatable=0;points=[[0,0.5],[1,0.5]];portConstraint=eastwest;whiteSpace=wrap;html=1;" parent="DMAtaqnA_2VvERT6udvz-160" vertex="1">
          <mxGeometry y="68" width="390" height="52" as="geometry" />
        </mxCell>
        <mxCell id="DMAtaqnA_2VvERT6udvz-164" style="edgeStyle=orthogonalEdgeStyle;rounded=0;orthogonalLoop=1;jettySize=auto;html=1;entryX=0.49;entryY=1.004;entryDx=0;entryDy=0;entryPerimeter=0;endArrow=block;endFill=0;" parent="1" source="DMAtaqnA_2VvERT6udvz-160" target="DMAtaqnA_2VvERT6udvz-147" edge="1">
          <mxGeometry relative="1" as="geometry" />
        </mxCell>
        <mxCell id="DMAtaqnA_2VvERT6udvz-168" style="edgeStyle=orthogonalEdgeStyle;rounded=0;orthogonalLoop=1;jettySize=auto;html=1;entryX=0;entryY=0.5;entryDx=0;entryDy=0;" parent="1" source="DMAtaqnA_2VvERT6udvz-49" target="DMAtaqnA_2VvERT6udvz-12" edge="1">
          <mxGeometry relative="1" as="geometry">
            <Array as="points">
              <mxPoint x="130" y="592" />
              <mxPoint x="130" y="210" />
              <mxPoint x="600" y="210" />
              <mxPoint x="600" y="300" />
            </Array>
          </mxGeometry>
        </mxCell>
        <mxCell id="DMAtaqnA_2VvERT6udvz-169" style="edgeStyle=orthogonalEdgeStyle;rounded=0;orthogonalLoop=1;jettySize=auto;html=1;entryX=0.007;entryY=0.625;entryDx=0;entryDy=0;entryPerimeter=0;" parent="1" source="DMAtaqnA_2VvERT6udvz-74" target="DMAtaqnA_2VvERT6udvz-83" edge="1">
          <mxGeometry relative="1" as="geometry" />
        </mxCell>
        <mxCell id="DMAtaqnA_2VvERT6udvz-170" style="edgeStyle=orthogonalEdgeStyle;rounded=0;orthogonalLoop=1;jettySize=auto;html=1;entryX=0.004;entryY=-0.052;entryDx=0;entryDy=0;entryPerimeter=0;" parent="1" source="DMAtaqnA_2VvERT6udvz-70" target="DMAtaqnA_2VvERT6udvz-51" edge="1">
          <mxGeometry relative="1" as="geometry" />
        </mxCell>
        <mxCell id="DMAtaqnA_2VvERT6udvz-171" style="edgeStyle=orthogonalEdgeStyle;rounded=0;orthogonalLoop=1;jettySize=auto;html=1;entryX=0.464;entryY=1.005;entryDx=0;entryDy=0;entryPerimeter=0;endArrow=block;endFill=0;" parent="1" source="DMAtaqnA_2VvERT6udvz-81" target="DMAtaqnA_2VvERT6udvz-37" edge="1">
          <mxGeometry relative="1" as="geometry" />
        </mxCell>
        <mxCell id="DMAtaqnA_2VvERT6udvz-174" style="edgeStyle=orthogonalEdgeStyle;rounded=0;orthogonalLoop=1;jettySize=auto;html=1;entryX=0.007;entryY=0.667;entryDx=0;entryDy=0;entryPerimeter=0;" parent="1" source="DMAtaqnA_2VvERT6udvz-78" target="DMAtaqnA_2VvERT6udvz-70" edge="1">
          <mxGeometry relative="1" as="geometry" />
        </mxCell>
        <mxCell id="DMAtaqnA_2VvERT6udvz-175" style="edgeStyle=orthogonalEdgeStyle;rounded=0;orthogonalLoop=1;jettySize=auto;html=1;entryX=0.49;entryY=1;entryDx=0;entryDy=0;entryPerimeter=0;endArrow=block;endFill=0;" parent="1" source="DMAtaqnA_2VvERT6udvz-69" target="DMAtaqnA_2VvERT6udvz-43" edge="1">
          <mxGeometry relative="1" as="geometry" />
        </mxCell>
        <mxCell id="DMAtaqnA_2VvERT6udvz-176" style="edgeStyle=orthogonalEdgeStyle;rounded=0;orthogonalLoop=1;jettySize=auto;html=1;entryX=0.483;entryY=1;entryDx=0;entryDy=0;entryPerimeter=0;endArrow=block;endFill=0;" parent="1" source="DMAtaqnA_2VvERT6udvz-73" target="DMAtaqnA_2VvERT6udvz-68" edge="1">
          <mxGeometry relative="1" as="geometry" />
        </mxCell>
        <mxCell id="DMAtaqnA_2VvERT6udvz-178" style="edgeStyle=orthogonalEdgeStyle;rounded=0;orthogonalLoop=1;jettySize=auto;html=1;" parent="1" source="DMAtaqnA_2VvERT6udvz-41" target="DMAtaqnA_2VvERT6udvz-5" edge="1">
          <mxGeometry relative="1" as="geometry" />
        </mxCell>
        <mxCell id="DMAtaqnA_2VvERT6udvz-180" style="edgeStyle=orthogonalEdgeStyle;rounded=0;orthogonalLoop=1;jettySize=auto;html=1;entryX=0;entryY=0.5;entryDx=0;entryDy=0;" parent="1" source="DMAtaqnA_2VvERT6udvz-66" target="DMAtaqnA_2VvERT6udvz-5" edge="1">
          <mxGeometry relative="1" as="geometry">
            <Array as="points">
              <mxPoint x="-760" y="990" />
              <mxPoint x="-760" y="-22" />
            </Array>
          </mxGeometry>
        </mxCell>
      </root>
    </mxGraphModel>
  </diagram>
</mxfile>
